<svg width="100" height="50" viewBox="0 0 162 163" fill="none" xmlns="http://www.w3.org/2000/svg">
<path d="M132.23 64.7402C132.23 69.916 131.938 75.4824 131.352 81.4395C130.766 87.3965 129.887 93.4512 128.715 99.6035C127.641 105.756 126.322 111.811 124.76 117.768C123.295 123.627 121.684 129.047 119.926 134.027L151.127 156L95.9023 153.656L99.2715 135.639C93.4121 142.963 86.625 148.578 78.9102 152.484C71.293 156.293 62.4551 158.588 52.3965 159.369C44.1934 159.955 37.0156 159.369 30.8633 157.611C24.8086 155.951 19.7305 153.363 15.6289 149.848C11.625 146.234 8.64648 141.84 6.69336 136.664C4.74023 131.391 3.76367 125.531 3.76367 119.086C3.76367 113.129 5.22852 107.367 8.1582 101.801C11.0879 96.1367 15.2871 91.1562 20.7559 86.8594C26.3223 82.5625 33.1094 79.1445 41.1172 76.6055C49.125 73.9688 58.207 72.6504 68.3633 72.6504C73.0508 72.6504 78.4219 73.0898 84.4766 73.9688C90.6289 74.8477 96.4395 76.7031 101.908 79.5352C101.42 73.5781 100.492 67.5234 99.125 61.3711C97.8555 55.1211 95.9512 49.457 93.4121 44.3789C90.873 39.3008 87.5527 35.1992 83.4512 32.0742C79.4473 28.8516 74.418 27.2402 68.3633 27.2402C63.1875 27.2402 58.1582 28.3145 53.2754 30.4629C48.3926 32.6113 43.8027 35.6875 39.5059 39.6914C35.3066 43.6953 31.498 48.5781 28.0801 54.3398C24.6621 60.1016 21.7812 66.5957 19.4375 73.8223L7.13281 2.04492L25.7363 30.6094C30.3262 24.9453 34.9648 20.4531 39.6523 17.1328C44.3398 13.7148 48.9785 11.127 53.5684 9.36914C58.2559 7.51367 62.748 6.29297 67.0449 5.70703C71.4395 5.12109 75.6387 4.82812 79.6426 4.82812C87.1621 5.21875 94.0957 6.78125 100.443 9.51562C106.889 12.1523 112.455 16.0098 117.143 21.0879C121.83 26.0684 125.492 32.2207 128.129 39.5449C130.863 46.8691 132.23 55.2676 132.23 64.7402ZM101.908 111.615C102.104 108.881 102.25 106.244 102.348 103.705C102.445 101.166 102.494 98.6758 102.494 96.2344V94.4766C98.9785 93.1094 95.4141 92.084 91.8008 91.4004C88.2852 90.6191 85.0137 90.082 81.9863 89.7891C78.959 89.3984 76.3711 89.2031 74.2227 89.2031C72.1719 89.1055 70.8047 89.0566 70.1211 89.0566C64.5547 89.252 59.7207 90.2773 55.6191 92.1328C51.5176 93.9883 48.0996 96.332 45.3652 99.1641C42.7285 101.898 40.7266 104.975 39.3594 108.393C38.0898 111.811 37.4551 115.18 37.4551 118.5C37.4551 126.02 39.2617 131.732 42.875 135.639C46.5859 139.447 51.957 141.352 58.9883 141.352C63.6758 141.352 68.1191 140.521 72.3184 138.861C76.5176 137.201 80.4238 135.004 84.0371 132.27C87.748 129.438 91.0684 126.264 93.998 122.748C97.0254 119.135 99.6621 115.424 101.908 111.615Z" fill="#40A90F"/>
<path d="M128.715 99.6035L125.768 99.0422L125.764 99.0648L125.76 99.0875L128.715 99.6035ZM124.76 117.768L121.858 117.006L121.854 117.023L121.849 117.04L124.76 117.768ZM119.926 134.027L117.097 133.029L116.341 135.172L118.198 136.48L119.926 134.027ZM151.127 156L151 158.997L161.209 159.431L152.854 153.547L151.127 156ZM95.9023 153.656L92.9535 153.105L92.3173 156.507L95.7751 156.654L95.9023 153.656ZM99.2715 135.639L102.22 136.19L96.9289 133.765L99.2715 135.639ZM78.9102 152.484L80.2518 155.168L80.2586 155.164L80.2653 155.161L78.9102 152.484ZM52.3965 159.369L52.6102 162.362L52.6195 162.361L52.6288 162.36L52.3965 159.369ZM30.8633 157.611L31.6874 154.727L31.672 154.722L31.6566 154.718L30.8633 157.611ZM15.6289 149.848L13.619 152.075L13.6474 152.1L13.6765 152.125L15.6289 149.848ZM6.69336 136.664L3.88011 137.706L3.88331 137.715L3.88655 137.723L6.69336 136.664ZM8.1582 101.801L10.813 103.198L10.8179 103.189L10.8229 103.179L8.1582 101.801ZM20.7559 86.8594L18.9227 84.4846L18.9125 84.4925L18.9024 84.5004L20.7559 86.8594ZM41.1172 76.6055L42.0239 79.4652L42.0397 79.4602L42.0554 79.455L41.1172 76.6055ZM84.4766 73.9688L84.0456 76.9376L84.0523 76.9386L84.4766 73.9688ZM101.908 79.5352L100.529 82.1991L105.341 84.6912L104.898 79.2901L101.908 79.5352ZM99.125 61.3711L96.185 61.9683L96.1905 61.9951L96.1964 62.0219L99.125 61.3711ZM83.4512 32.0742L81.5701 34.4113L81.6013 34.4363L81.633 34.4605L83.4512 32.0742ZM39.5059 39.6914L37.4607 37.4966L37.4481 37.5083L37.4356 37.5202L39.5059 39.6914ZM19.4375 73.8223L16.4806 74.3292L22.2912 74.7478L19.4375 73.8223ZM7.13281 2.04492L9.64667 0.407692L4.17595 2.55181L7.13281 2.04492ZM25.7363 30.6094L23.2225 32.2466L25.472 35.7006L28.0671 32.4981L25.7363 30.6094ZM39.6523 17.1328L41.3864 19.5809L41.4032 19.569L41.4199 19.5568L39.6523 17.1328ZM53.5684 9.36914L54.6413 12.1707L54.6569 12.1647L54.6725 12.1586L53.5684 9.36914ZM67.0449 5.70703L66.6484 2.73333L66.6396 2.73454L67.0449 5.70703ZM79.6426 4.82812L79.7982 1.83216L79.7204 1.82812H79.6426V4.82812ZM100.443 9.51562L99.2565 12.2709L99.2819 12.2818L99.3075 12.2923L100.443 9.51562ZM117.143 21.0879L114.938 23.1227L114.948 23.1334L114.958 23.144L117.143 21.0879ZM128.129 39.5449L125.306 40.5611L125.312 40.5777L125.318 40.5942L128.129 39.5449ZM101.908 111.615L104.492 113.139L104.85 112.532L104.901 111.829L101.908 111.615ZM102.494 94.4766H105.494V92.4244L103.581 91.6805L102.494 94.4766ZM91.8008 91.4004L91.15 94.329L91.1964 94.3393L91.2431 94.3481L91.8008 91.4004ZM81.9863 89.7891L81.6024 92.7644L81.6498 92.7705L81.6974 92.7751L81.9863 89.7891ZM74.2227 89.2031L74.08 92.1997L74.1513 92.2031H74.2227V89.2031ZM70.1211 89.0566V86.0566H70.0685L70.0159 86.0585L70.1211 89.0566ZM45.3652 99.1641L43.207 97.0803L43.2057 97.0817L45.3652 99.1641ZM39.3594 108.393L36.5739 107.278L36.5601 107.313L36.5471 107.348L39.3594 108.393ZM42.875 135.639L40.6727 137.676L40.6991 137.704L40.7263 137.732L42.875 135.639ZM84.0371 132.27L85.8475 134.662L85.8571 134.654L84.0371 132.27ZM93.998 122.748L91.6985 120.821L91.6934 120.827L93.998 122.748ZM129.23 64.7402C129.23 69.8042 128.944 75.2716 128.366 81.1458L134.337 81.7331C134.931 75.6932 135.23 70.0278 135.23 64.7402H129.23ZM128.366 81.1458C127.789 87.009 126.924 92.9744 125.768 99.0422L131.662 100.165C132.85 93.928 133.742 87.7839 134.337 81.7331L128.366 81.1458ZM125.76 99.0875C124.7 105.159 123.399 111.131 121.858 117.006L127.662 118.529C129.246 112.49 130.582 106.353 131.67 100.12L125.76 99.0875ZM121.849 117.04C120.404 122.821 118.819 128.149 117.097 133.029L122.755 135.026C124.548 129.945 126.186 124.433 127.67 118.495L121.849 117.04ZM118.198 136.48L149.4 158.453L152.854 153.547L121.653 131.575L118.198 136.48ZM151.254 153.003L96.0296 150.659L95.7751 156.654L151 158.997L151.254 153.003ZM98.8512 154.208L102.22 136.19L96.3226 135.087L92.9535 153.105L98.8512 154.208ZM96.9289 133.765C91.3145 140.783 84.8556 146.111 77.555 149.808L80.2653 155.161C88.3944 151.045 95.5097 145.143 101.614 137.513L96.9289 133.765ZM77.5685 149.801C70.3555 153.408 61.9066 155.621 52.1642 156.378L52.6288 162.36C63.0036 161.554 72.2305 159.178 80.2518 155.168L77.5685 149.801ZM52.1827 156.377C44.2343 156.945 37.4221 156.365 31.6874 154.727L30.0391 160.496C36.6092 162.373 44.1524 162.966 52.6102 162.362L52.1827 156.377ZM31.6566 154.718C25.96 153.156 21.2963 150.754 17.5813 147.57L13.6765 152.125C18.1647 155.972 23.6572 158.746 30.07 160.505L31.6566 154.718ZM17.6388 147.62C13.9992 144.336 11.289 140.345 9.50016 135.605L3.88655 137.723C6.00396 143.334 9.25085 148.133 13.619 152.075L17.6388 147.62ZM9.50661 135.622C7.69364 130.727 6.76367 125.227 6.76367 119.086H0.763672C0.763672 125.836 1.78683 132.054 3.88011 137.706L9.50661 135.622ZM6.76367 119.086C6.76367 113.643 8.09695 108.358 10.813 103.198L5.50345 100.404C2.36009 106.376 0.763672 112.615 0.763672 119.086H6.76367ZM10.8229 103.179C13.5381 97.9296 17.4471 93.2744 22.6093 89.2183L18.9024 84.5004C13.1272 89.0381 8.6377 94.3438 5.49355 100.423L10.8229 103.179ZM22.589 89.2341C27.8292 85.1891 34.2874 81.9182 42.0239 79.4652L40.2105 73.7458C31.9313 76.3709 24.8154 79.9359 18.9227 84.4846L22.589 89.2341ZM42.0554 79.455C49.7059 76.9359 58.4627 75.6504 68.3633 75.6504V69.6504C57.9514 69.6504 48.5441 71.0016 40.1789 73.756L42.0554 79.455ZM68.3633 75.6504C72.8708 75.6504 78.0932 76.0736 84.0456 76.9376L84.9075 70.9999C78.7506 70.1061 73.2308 69.6504 68.3633 69.6504V75.6504ZM84.0523 76.9386C89.8744 77.7703 95.3617 79.5234 100.529 82.1991L103.288 76.8712C97.5172 73.8829 91.3834 71.925 84.9008 70.9989L84.0523 76.9386ZM104.898 79.2901C104.398 73.1894 103.449 66.9991 102.054 60.7203L96.1964 62.0219C97.5355 68.0478 98.4417 73.9668 98.9182 79.7802L104.898 79.2901ZM102.065 60.7739C100.749 54.2968 98.7658 48.3781 96.0954 43.0373L90.7288 45.7205C93.1365 50.5359 94.9616 55.9453 96.185 61.9683L102.065 60.7739ZM96.0954 43.0373C93.3725 37.5914 89.7708 33.1176 85.2693 29.6879L81.633 34.4605C85.3347 37.2808 88.3736 41.0101 90.7288 45.7205L96.0954 43.0373ZM85.3322 29.7372C80.704 26.012 74.9751 24.2402 68.3633 24.2402V30.2402C73.8608 30.2402 78.1905 31.6911 81.5701 34.4113L85.3322 29.7372ZM68.3633 24.2402C62.7586 24.2402 57.3188 25.4062 52.0672 27.7169L54.4836 33.2088C58.9976 31.2227 63.6164 30.2402 68.3633 30.2402V24.2402ZM52.0672 27.7169C46.8469 30.0138 41.9789 33.2864 37.4607 37.4966L41.551 41.8862C45.6265 38.0886 49.9382 35.2088 54.4836 33.2088L52.0672 27.7169ZM37.4356 37.5202C33.0101 41.7399 29.0367 46.8472 25.4999 52.8092L30.6602 55.8704C33.9594 50.309 37.6032 45.6507 41.5761 41.8626L37.4356 37.5202ZM25.4999 52.8092C21.9548 58.7854 18.9871 65.4866 16.5838 72.8968L22.2912 74.7478C24.5754 67.7048 27.3695 61.4178 30.6602 55.8704L25.4999 52.8092ZM22.3944 73.3154L10.0897 1.53803L4.17595 2.55181L16.4806 74.3292L22.3944 73.3154ZM4.61896 3.68215L23.2225 32.2466L28.2502 28.9721L9.64667 0.407692L4.61896 3.68215ZM28.0671 32.4981C32.5285 26.9926 36.973 22.707 41.3864 19.5809L37.9183 14.6847C32.9567 18.1992 28.1239 22.898 23.4055 28.7206L28.0671 32.4981ZM41.4199 19.5568C45.9308 16.2676 50.3383 13.8187 54.6413 12.1707L52.4954 6.56757C47.6187 8.43525 42.7489 11.1621 37.8848 14.7088L41.4199 19.5568ZM54.6725 12.1586C59.1707 10.378 63.4279 9.22803 67.4503 8.67952L66.6396 2.73454C62.0682 3.35791 57.341 4.64933 52.4642 6.57972L54.6725 12.1586ZM67.4414 8.68071C71.7183 8.11047 75.7845 7.82812 79.6426 7.82812V1.82812C75.4929 1.82812 71.1606 2.13172 66.6484 2.73335L67.4414 8.68071ZM79.4869 7.82409C86.683 8.19791 93.2636 9.68932 99.2565 12.2709L101.63 6.76039C94.9278 3.87318 87.6412 2.23959 79.7982 1.83216L79.4869 7.82409ZM99.3075 12.2923C105.35 14.7642 110.551 18.3696 114.938 23.1227L119.347 19.0531C114.36 13.6499 108.427 9.54053 101.579 6.73898L99.3075 12.2923ZM114.958 23.144C119.327 27.7865 122.79 33.5703 125.306 40.5611L130.952 38.5288C128.195 30.8711 124.333 24.3502 119.327 19.0318L114.958 23.144ZM125.318 40.5942C127.904 47.5201 129.23 55.5522 129.23 64.7402H135.23C135.23 54.9829 133.822 46.2182 130.939 38.4957L125.318 40.5942ZM104.901 111.829C105.098 109.064 105.246 106.395 105.345 103.82L99.3499 103.59C99.2536 106.094 99.109 108.697 98.9158 111.401L104.901 111.829ZM105.345 103.82C105.445 101.244 105.494 98.7157 105.494 96.2344H99.4941C99.4941 98.6358 99.4461 101.088 99.3499 103.59L105.345 103.82ZM105.494 96.2344V94.4766H99.4941V96.2344H105.494ZM103.581 91.6805C99.8987 90.2484 96.1572 89.1714 92.3585 88.4527L91.2431 94.3481C94.671 94.9966 98.0583 95.9704 101.407 97.2726L103.581 91.6805ZM92.4516 88.4718C88.8376 87.6687 85.444 87.1097 82.2753 86.803L81.6974 92.7751C84.5833 93.0544 87.7327 93.5695 91.15 94.329L92.4516 88.4718ZM82.3702 86.8137C79.2638 86.4129 76.5403 86.2031 74.2227 86.2031V92.2031C76.2019 92.2031 78.6541 92.384 81.6024 92.7644L82.3702 86.8137ZM74.3654 86.2065C72.3265 86.1094 70.888 86.0566 70.1211 86.0566V92.0566C70.7214 92.0566 72.0172 92.1015 74.08 92.1997L74.3654 86.2065ZM70.0159 86.0585C64.1485 86.2644 58.9141 87.3496 54.3826 89.3995L56.8556 94.8661C60.5273 93.2051 64.9608 92.2395 70.2263 92.0548L70.0159 86.0585ZM54.3826 89.3995C49.9847 91.389 46.2399 93.9391 43.207 97.0803L47.5234 101.248C49.9594 98.7249 53.0505 96.5875 56.8556 94.8661L54.3826 89.3995ZM43.2057 97.0817C40.3085 100.086 38.0898 103.489 36.5739 107.278L42.1448 109.507C43.3633 106.46 45.1486 103.711 47.5248 101.246L43.2057 97.0817ZM36.5471 107.348C35.1656 111.067 34.4551 114.79 34.4551 118.5H40.4551C40.4551 115.57 41.0141 112.554 42.1717 109.437L36.5471 107.348ZM34.4551 118.5C34.4551 126.463 36.3681 133.022 40.6727 137.676L45.0773 133.602C42.1553 130.443 40.4551 125.576 40.4551 118.5H34.4551ZM40.7263 137.732C45.1667 142.29 51.4192 144.352 58.9883 144.352V138.352C52.4949 138.352 48.0052 136.605 45.0237 133.545L40.7263 137.732ZM58.9883 144.352C64.0388 144.352 68.8576 143.455 73.4213 141.651L71.2154 136.071C67.3807 137.587 63.3128 138.352 58.9883 138.352V144.352ZM73.4213 141.651C77.8742 139.891 82.0182 137.56 85.8474 134.662L82.2268 129.877C78.8294 132.448 75.161 134.512 71.2154 136.071L73.4213 141.651ZM85.8571 134.654C89.7429 131.689 93.2265 128.36 96.3027 124.669L91.6934 120.827C88.9102 124.167 85.7532 127.186 82.2171 129.885L85.8571 134.654ZM96.2976 124.675C99.4238 120.943 102.157 117.099 104.492 113.139L99.3241 110.091C97.1669 113.749 94.627 117.326 91.6985 120.821L96.2976 124.675Z" fill="black"/>
</svg>
