<svg viewBox="0 0 1038 137" fill="none" xmlns="http://www.w3.org/2000/svg">

	<path d="M97.9199 25.4102C97.9199 29.8633 97.041 34.2871 95.2832 38.6816C93.5254 43.0762 91.1523 47.1484 88.1641 50.8984C85.2344 54.6484 81.8359 57.9297 77.9688 60.7422C74.1016 63.5547 70.0879 65.5762 65.9277 66.8066L64.082 63.7305C66.543 62.5 68.7988 60.918 70.8496 58.9844C72.9004 57.0508 74.6582 54.8828 76.123 52.4805C77.5879 50.0195 78.7012 47.4414 79.4629 44.7461C80.2832 41.9922 80.6934 39.209 80.6934 36.3965C80.6934 33.1738 80.2246 30.127 79.2871 27.2559C78.3496 24.3848 76.9727 21.8945 75.1562 19.7852C73.3398 17.6172 71.084 15.918 68.3887 14.6875C65.752 13.457 62.7051 12.8418 59.248 12.8418C55.0293 12.8418 51.1621 13.6621 47.6465 15.3027C44.1309 16.9434 40.9668 19.1699 38.1543 21.9824C35.3418 24.7363 32.8809 27.9297 30.7715 31.5625C28.7207 35.1367 26.9922 38.916 25.5859 42.9004C24.2383 46.8262 23.2129 50.8105 22.5098 54.8535C21.8066 58.8965 21.4551 62.7051 21.4551 66.2793C21.4551 69.9121 21.8359 73.6621 22.5977 77.5293C23.3594 81.3965 24.4727 85.2051 25.9375 88.9551C27.4023 92.7051 29.2188 96.25 31.3867 99.5898C33.5547 102.93 36.0449 105.859 38.8574 108.379C41.7285 110.898 44.8926 112.92 48.3496 114.443C51.8652 115.908 55.6738 116.641 59.7754 116.641C62.5879 116.641 65.3125 116.26 67.9492 115.498C70.6445 114.736 73.2227 113.711 75.6836 112.422C78.1445 111.133 80.459 109.609 82.627 107.852C84.8535 106.094 86.9043 104.189 88.7793 102.139L91.6797 104.951C89.1016 108.35 86.0254 111.631 82.4512 114.795C78.9355 117.9 75.127 120.684 71.0254 123.145C66.9238 125.547 62.6172 127.48 58.1055 128.945C53.6523 130.352 49.2285 131.055 44.834 131.055C40.5566 131.055 36.5137 130.322 32.7051 128.857C28.9551 127.334 25.498 125.312 22.334 122.793C19.1699 120.215 16.3281 117.227 13.8086 113.828C11.3477 110.371 9.23828 106.709 7.48047 102.842C5.78125 98.9746 4.46289 94.9902 3.52539 90.8887C2.64648 86.7871 2.20703 82.7734 2.20703 78.8477C2.20703 73.1641 3.14453 67.334 5.01953 61.3574C6.95312 55.3223 9.58984 49.4922 12.9297 43.8672C16.2695 38.1836 20.1953 32.8223 24.707 27.7832C29.2773 22.7441 34.1699 18.3496 39.3848 14.5996C44.6582 10.8496 50.1367 7.89062 55.8203 5.72266C61.5625 3.49609 67.2754 2.38281 72.959 2.38281C76.4746 2.38281 79.7559 2.91016 82.8027 3.96484C85.8496 4.96094 88.4863 6.42578 90.7129 8.35938C92.9395 10.293 94.6973 12.6953 95.9863 15.5664C97.2754 18.4375 97.9199 21.7188 97.9199 25.4102Z" stroke="white" stroke-width="4" mask="url(#path-1-outside-1)"/>
	<path d="M178.516 119.717C177.871 121.24 176.992 122.676 175.879 124.023C174.824 125.371 173.594 126.572 172.188 127.627C170.84 128.682 169.346 129.502 167.705 130.088C166.123 130.732 164.453 131.055 162.695 131.055C158.125 131.055 154.785 129.795 152.676 127.275C150.625 124.697 149.6 121.211 149.6 116.816V81.0449C149.6 80.5762 149.57 80.0781 149.512 79.5508C149.453 78.9648 149.307 78.4375 149.072 77.9688C148.896 77.4414 148.633 77.0312 148.281 76.7383C147.93 76.3867 147.461 76.2109 146.875 76.2109C145.352 76.2109 143.916 76.8555 142.568 78.1445C141.221 79.375 139.99 81.0742 138.877 83.2422C137.764 85.3516 136.709 87.7832 135.713 90.5371C134.775 93.291 133.926 96.1621 133.164 99.1504C132.402 102.139 131.729 105.127 131.143 108.115C130.615 111.104 130.146 113.916 129.736 116.553C129.326 119.189 129.004 121.504 128.77 123.496C128.594 125.488 128.506 126.982 128.506 127.979L112.334 133.604V9.58984L128.506 3.96484V99.0625C128.857 96.9531 129.414 94.5508 130.176 91.8555C130.938 89.1016 131.875 86.3184 132.988 83.5059C134.102 80.6934 135.391 77.9102 136.855 75.1562C138.379 72.4023 140.078 69.9707 141.953 67.8613C143.828 65.752 145.879 64.0527 148.105 62.7637C150.391 61.416 152.852 60.7422 155.488 60.7422C158.184 60.7422 160.234 61.3574 161.641 62.5879C163.047 63.7598 164.043 65.2832 164.629 67.1582C165.273 68.9746 165.625 70.9961 165.684 73.2227C165.742 75.4492 165.771 77.5879 165.771 79.6387V117.256C165.771 118.428 166.035 119.512 166.562 120.508C167.148 121.445 168.086 121.914 169.375 121.914C170.84 121.914 172.158 121.387 173.33 120.332C174.502 119.219 175.469 118.135 176.23 117.08L178.516 119.717Z" stroke="white" stroke-width="4" mask="url(#path-1-outside-1)"/>
	<path d="M248.125 112.861C246.074 115.498 243.818 117.959 241.357 120.244C238.955 122.529 236.318 124.521 233.447 126.221C230.635 127.92 227.646 129.268 224.482 130.264C221.318 131.26 218.037 131.758 214.639 131.758C210.303 131.758 206.318 130.996 202.686 129.473C199.053 127.891 195.918 125.752 193.281 123.057C190.645 120.303 188.594 117.08 187.129 113.389C185.664 109.639 184.932 105.625 184.932 101.348C184.932 97.832 185.43 94.375 186.426 90.9766C187.422 87.5781 188.828 84.3848 190.645 81.3965C192.461 78.4082 194.6 75.6543 197.061 73.1348C199.58 70.5566 202.334 68.3594 205.322 66.543C208.311 64.7266 211.475 63.3203 214.814 62.3242C218.154 61.2695 221.582 60.7422 225.098 60.7422C227.559 60.7422 229.873 61.0352 232.041 61.6211C234.268 62.207 236.23 63.1445 237.93 64.4336C239.629 65.6641 240.977 67.2754 241.973 69.2676C242.969 71.2012 243.467 73.5156 243.467 76.2109C243.467 78.4375 242.793 80.7812 241.445 83.2422C240.156 85.7031 238.428 88.1641 236.26 90.625C234.15 93.0859 231.748 95.5176 229.053 97.9199C226.357 100.264 223.604 102.461 220.791 104.512C218.037 106.504 215.371 108.262 212.793 109.785C210.215 111.309 207.959 112.48 206.025 113.301C208.193 115.996 210.713 118.193 213.584 119.893C216.455 121.592 219.502 122.441 222.725 122.441C224.775 122.441 226.855 122.061 228.965 121.299C231.074 120.479 233.096 119.453 235.029 118.223C237.021 116.992 238.896 115.645 240.654 114.18C242.471 112.715 244.082 111.338 245.488 110.049L248.125 112.861ZM226.943 79.4629C226.943 78.1152 226.709 76.8262 226.24 75.5957C225.83 74.3652 225.215 73.3105 224.395 72.4316C223.574 71.4941 222.578 70.7617 221.406 70.2344C220.293 69.6484 219.004 69.3555 217.539 69.3555C214.902 69.3555 212.471 70.293 210.244 72.168C208.018 73.9844 206.084 76.2402 204.443 78.9355C202.861 81.6309 201.602 84.502 200.664 87.5488C199.785 90.5371 199.346 93.1738 199.346 95.459C199.346 97.6855 199.697 99.9707 200.4 102.314C201.104 104.658 202.07 106.914 203.301 109.082C205.645 107.793 208.193 106.006 210.947 103.721C213.701 101.436 216.25 98.9453 218.594 96.25C220.996 93.4961 222.988 90.6543 224.57 87.7246C226.152 84.7949 226.943 82.041 226.943 79.4629Z" stroke="white" stroke-width="4" mask="url(#path-1-outside-1)"/>
	<path d="M308.506 120.42C307.451 122.061 306.162 123.555 304.639 124.902C303.115 126.191 301.445 127.305 299.629 128.242C297.812 129.18 295.908 129.912 293.916 130.439C291.924 130.967 289.961 131.23 288.027 131.23C285.449 131.23 283.223 130.762 281.348 129.824C279.531 128.828 278.037 127.539 276.865 125.957C275.693 124.375 274.814 122.529 274.229 120.42C273.701 118.311 273.438 116.113 273.438 113.828C273.438 110.84 273.877 107.646 274.756 104.248C275.693 100.791 276.924 97.3926 278.447 94.0527C280.029 90.7129 281.816 87.6074 283.809 84.7363C285.801 81.8652 287.91 79.4922 290.137 77.6172C288.086 78.9648 285.83 80.0195 283.369 80.7812C280.967 81.543 278.506 81.9238 275.986 81.9238C274.17 81.9238 272.588 81.7773 271.24 81.4844C269.893 81.1914 268.398 80.6348 266.758 79.8145L257.617 98.8867L253.838 97.3926L263.33 77.9688C262.334 77.2656 261.25 76.3867 260.078 75.332C258.965 74.2188 258.145 73.1348 257.617 72.0801L269.834 58.3691C270.361 59.9512 271.094 61.5625 272.031 63.2031C272.969 64.7852 274.053 66.2207 275.283 67.5098C276.572 68.7402 277.979 69.7656 279.502 70.5859C281.084 71.4062 282.783 71.8164 284.6 71.8164C287.705 71.8164 290.723 71.2598 293.652 70.1465C296.582 68.9746 299.307 67.5684 301.826 65.9277L304.199 68.3008C301.973 70.3516 299.717 72.6367 297.432 75.1562C295.205 77.6172 293.184 80.2539 291.367 83.0664C289.551 85.8789 288.086 88.8379 286.973 91.9434C285.859 95.0488 285.303 98.1836 285.303 101.348C285.303 103.164 285.537 105.215 286.006 107.5C286.533 109.727 287.324 111.865 288.379 113.916C289.434 115.908 290.752 117.607 292.334 119.014C293.916 120.361 295.82 121.035 298.047 121.035C299.57 121.035 301.035 120.771 302.441 120.244C303.906 119.658 305.225 118.955 306.396 118.135L308.506 120.42Z" stroke="white" stroke-width="4" mask="url(#path-1-outside-1)"/>
	<path d="M379.961 112.861C377.91 115.498 375.654 117.959 373.193 120.244C370.791 122.529 368.154 124.521 365.283 126.221C362.471 127.92 359.482 129.268 356.318 130.264C353.154 131.26 349.873 131.758 346.475 131.758C342.139 131.758 338.154 130.996 334.521 129.473C330.889 127.891 327.754 125.752 325.117 123.057C322.48 120.303 320.43 117.08 318.965 113.389C317.5 109.639 316.768 105.625 316.768 101.348C316.768 97.832 317.266 94.375 318.262 90.9766C319.258 87.5781 320.664 84.3848 322.48 81.3965C324.297 78.4082 326.436 75.6543 328.896 73.1348C331.416 70.5566 334.17 68.3594 337.158 66.543C340.146 64.7266 343.311 63.3203 346.65 62.3242C349.99 61.2695 353.418 60.7422 356.934 60.7422C359.395 60.7422 361.709 61.0352 363.877 61.6211C366.104 62.207 368.066 63.1445 369.766 64.4336C371.465 65.6641 372.812 67.2754 373.809 69.2676C374.805 71.2012 375.303 73.5156 375.303 76.2109C375.303 78.4375 374.629 80.7812 373.281 83.2422C371.992 85.7031 370.264 88.1641 368.096 90.625C365.986 93.0859 363.584 95.5176 360.889 97.9199C358.193 100.264 355.439 102.461 352.627 104.512C349.873 106.504 347.207 108.262 344.629 109.785C342.051 111.309 339.795 112.48 337.861 113.301C340.029 115.996 342.549 118.193 345.42 119.893C348.291 121.592 351.338 122.441 354.561 122.441C356.611 122.441 358.691 122.061 360.801 121.299C362.91 120.479 364.932 119.453 366.865 118.223C368.857 116.992 370.732 115.645 372.49 114.18C374.307 112.715 375.918 111.338 377.324 110.049L379.961 112.861ZM358.779 79.4629C358.779 78.1152 358.545 76.8262 358.076 75.5957C357.666 74.3652 357.051 73.3105 356.23 72.4316C355.41 71.4941 354.414 70.7617 353.242 70.2344C352.129 69.6484 350.84 69.3555 349.375 69.3555C346.738 69.3555 344.307 70.293 342.08 72.168C339.854 73.9844 337.92 76.2402 336.279 78.9355C334.697 81.6309 333.438 84.502 332.5 87.5488C331.621 90.5371 331.182 93.1738 331.182 95.459C331.182 97.6855 331.533 99.9707 332.236 102.314C332.939 104.658 333.906 106.914 335.137 109.082C337.48 107.793 340.029 106.006 342.783 103.721C345.537 101.436 348.086 98.9453 350.43 96.25C352.832 93.4961 354.824 90.6543 356.406 87.7246C357.988 84.7949 358.779 82.041 358.779 79.4629Z" stroke="white" stroke-width="4" mask="url(#path-1-outside-1)"/>
	<path d="M461.963 119.541C461.26 121.064 460.352 122.5 459.238 123.848C458.125 125.195 456.895 126.396 455.547 127.451C454.199 128.506 452.705 129.355 451.064 130C449.482 130.586 447.842 130.879 446.143 130.879C441.514 130.879 438.145 129.619 436.035 127.1C433.984 124.521 432.959 121.035 432.959 116.641V115.059C431.963 117.051 430.82 119.043 429.531 121.035C428.242 123.027 426.748 124.814 425.049 126.396C423.408 127.979 421.533 129.268 419.424 130.264C417.373 131.26 415.059 131.758 412.48 131.758C408.555 131.758 405.098 130.996 402.109 129.473C399.18 127.891 396.719 125.811 394.727 123.232C392.734 120.596 391.211 117.549 390.156 114.092C389.16 110.635 388.662 107.002 388.662 103.193C388.662 98.2715 389.424 93.3203 390.947 88.3398C392.471 83.3594 394.697 78.8477 397.627 74.8047C400.557 70.7617 404.16 67.4805 408.438 64.9609C412.715 62.3828 417.607 61.0938 423.115 61.0938C426.514 61.0938 429.795 61.9141 432.959 63.5547V9.58984L449.219 3.96484V117.08C449.219 118.252 449.482 119.336 450.01 120.332C450.596 121.27 451.533 121.738 452.822 121.738C454.17 121.738 455.43 121.211 456.602 120.156C457.773 119.043 458.711 117.93 459.414 116.816L461.963 119.541ZM432.959 93.0859V74.3652C431.611 73.0176 430.088 71.9043 428.389 71.0254C426.748 70.1465 424.932 69.707 422.939 69.707C419.482 69.707 416.553 70.6445 414.15 72.5195C411.748 74.3945 409.785 76.7383 408.262 79.5508C406.738 82.3633 405.625 85.4102 404.922 88.6914C404.219 91.9141 403.867 94.9316 403.867 97.7441C403.867 99.9707 404.072 102.49 404.482 105.303C404.951 108.057 405.713 110.664 406.768 113.125C407.881 115.527 409.316 117.578 411.074 119.277C412.891 120.918 415.146 121.738 417.842 121.738C420.01 121.738 421.885 121.27 423.467 120.332C425.107 119.336 426.484 118.076 427.598 116.553C428.711 114.971 429.619 113.184 430.322 111.191C431.025 109.141 431.553 107.061 431.904 104.951C432.314 102.842 432.578 100.762 432.695 98.7109C432.871 96.6016 432.959 94.7266 432.959 93.0859Z" stroke="white" stroke-width="4" mask="url(#path-1-outside-1)"/>
	<path d="M545.371 119.717C544.668 121.24 543.76 122.676 542.646 124.023C541.533 125.371 540.273 126.572 538.867 127.627C537.52 128.682 536.055 129.502 534.473 130.088C532.891 130.732 531.25 131.055 529.551 131.055C524.922 131.055 521.553 129.795 519.443 127.275C517.393 124.697 516.367 121.211 516.367 116.816V81.0449C516.367 80.6348 516.338 80.166 516.279 79.6387C516.279 79.0527 516.191 78.5254 516.016 78.0566C515.84 77.5293 515.605 77.0898 515.312 76.7383C515.02 76.3867 514.609 76.2109 514.082 76.2109C512.441 76.2109 510.771 77.207 509.072 79.1992C507.432 81.1914 505.82 83.7695 504.238 86.9336C502.715 90.0977 501.279 93.6426 499.932 97.5684C498.643 101.494 497.5 105.391 496.504 109.258C495.508 113.066 494.717 116.641 494.131 119.98C493.604 123.32 493.34 125.986 493.34 127.979L477.344 133.604V74.541C477.344 73.3691 477.051 72.3145 476.465 71.377C475.879 70.3809 474.971 69.8828 473.74 69.8828C472.275 69.8828 470.928 70.4395 469.697 71.5527C468.525 72.6074 467.588 73.6621 466.885 74.7168L464.512 72.0801C465.215 70.6152 466.094 69.209 467.148 67.8613C468.262 66.4551 469.492 65.2246 470.84 64.1699C472.246 63.1152 473.74 62.2949 475.322 61.709C476.963 61.0645 478.662 60.7422 480.42 60.7422C484.99 60.7422 488.271 62.0312 490.264 64.6094C492.314 67.1289 493.34 70.5566 493.34 74.8926V103.545C493.867 101.143 494.57 98.418 495.449 95.3711C496.387 92.2656 497.5 89.1309 498.789 85.9668C500.078 82.8027 501.514 79.7266 503.096 76.7383C504.736 73.6914 506.523 70.9961 508.457 68.6523C510.391 66.25 512.5 64.3457 514.785 62.9395C517.07 61.4746 519.531 60.7422 522.168 60.7422C524.922 60.7422 527.002 61.3574 528.408 62.5879C529.814 63.7598 530.811 65.2832 531.396 67.1582C532.041 68.9746 532.393 70.9961 532.451 73.2227C532.51 75.4492 532.539 77.5879 532.539 79.6387V117.256C532.539 118.428 532.832 119.512 533.418 120.508C534.004 121.445 534.912 121.914 536.143 121.914C537.49 121.914 538.75 121.387 539.922 120.332C541.152 119.219 542.119 118.135 542.822 117.08L545.371 119.717Z" stroke="white" stroke-width="4" mask="url(#path-1-outside-1)"/>
	<path d="M573.76 15.3027L569.102 47.3828L560.488 50.1074L555.215 21.6309L573.76 15.3027ZM585.889 119.717C584.541 122.588 582.959 124.785 581.143 126.309C579.385 127.832 577.686 128.945 576.045 129.648C574.111 130.469 572.148 130.938 570.156 131.055C567.578 131.055 565.439 130.645 563.74 129.824C562.041 129.004 560.693 127.92 559.697 126.572C558.701 125.225 557.998 123.701 557.588 122.002C557.236 120.303 557.061 118.574 557.061 116.816V67.5098L573.232 61.9727V117.256C573.232 118.662 573.555 119.775 574.199 120.596C574.844 121.416 575.664 121.855 576.66 121.914C577.715 121.914 578.828 121.533 580 120.771C581.23 120.01 582.402 118.779 583.516 117.08L585.889 119.717Z" stroke="white" stroke-width="4" mask="url(#path-1-outside-1)"/>
	<path d="M655.938 110.928C653.887 113.564 651.631 116.143 649.17 118.662C646.768 121.123 644.131 123.32 641.26 125.254C638.447 127.188 635.459 128.77 632.295 130C629.131 131.172 625.85 131.758 622.451 131.758C618.115 131.758 614.131 130.996 610.498 129.473C606.865 127.949 603.73 125.781 601.094 122.969C598.457 120.156 596.406 116.758 594.941 112.773C593.477 108.789 592.744 104.336 592.744 99.4141C592.744 94.2578 593.77 89.3652 595.82 84.7363C597.93 80.1074 600.713 76.0645 604.17 72.6074C607.686 69.0918 611.758 66.3379 616.387 64.3457C621.016 62.2949 625.879 61.2695 630.977 61.2695C632.969 61.2695 634.961 61.4746 636.953 61.8848C639.004 62.2363 640.938 62.8223 642.754 63.6426C644.629 64.4043 646.328 65.459 647.852 66.8066C649.434 68.0957 650.752 69.6484 651.807 71.4648L639.238 78.3203C638.652 76.9141 637.803 75.6836 636.689 74.6289C635.635 73.5742 634.434 72.6953 633.086 71.9922C631.738 71.2891 630.303 70.7617 628.779 70.4102C627.314 70.0586 625.879 69.8828 624.473 69.8828C621.66 69.8828 619.141 70.5273 616.914 71.8164C614.688 73.0469 612.783 74.6875 611.201 76.7383C609.678 78.7305 608.506 81.0156 607.686 83.5938C606.865 86.1133 606.455 88.6914 606.455 91.3281C606.455 96.3672 607.07 100.82 608.301 104.688C609.531 108.555 611.23 111.807 613.398 114.443C615.566 117.08 618.115 119.072 621.045 120.42C623.975 121.768 627.168 122.441 630.625 122.441C632.617 122.441 634.668 121.943 636.777 120.947C638.887 119.951 640.908 118.721 642.842 117.256C644.834 115.732 646.709 114.121 648.467 112.422C650.283 110.723 651.895 109.199 653.301 107.852L655.938 110.928Z" stroke="white" stroke-width="4" mask="url(#path-1-outside-1)"/>
	<path d="M734.688 119.717C734.043 121.24 733.164 122.676 732.051 124.023C730.996 125.371 729.766 126.572 728.359 127.627C727.012 128.682 725.518 129.502 723.877 130.088C722.295 130.732 720.625 131.055 718.867 131.055C714.297 131.055 710.957 129.795 708.848 127.275C706.797 124.697 705.771 121.211 705.771 116.816V81.0449C705.771 80.5762 705.742 80.0781 705.684 79.5508C705.625 78.9648 705.479 78.4375 705.244 77.9688C705.068 77.4414 704.805 77.0312 704.453 76.7383C704.102 76.3867 703.633 76.2109 703.047 76.2109C701.523 76.2109 700.088 76.8555 698.74 78.1445C697.393 79.375 696.162 81.0742 695.049 83.2422C693.936 85.3516 692.881 87.7832 691.885 90.5371C690.947 93.291 690.098 96.1621 689.336 99.1504C688.574 102.139 687.9 105.127 687.314 108.115C686.787 111.104 686.318 113.916 685.908 116.553C685.498 119.189 685.176 121.504 684.941 123.496C684.766 125.488 684.678 126.982 684.678 127.979L668.506 133.604V9.58984L684.678 3.96484V99.0625C685.029 96.9531 685.586 94.5508 686.348 91.8555C687.109 89.1016 688.047 86.3184 689.16 83.5059C690.273 80.6934 691.562 77.9102 693.027 75.1562C694.551 72.4023 696.25 69.9707 698.125 67.8613C700 65.752 702.051 64.0527 704.277 62.7637C706.562 61.416 709.023 60.7422 711.66 60.7422C714.355 60.7422 716.406 61.3574 717.812 62.5879C719.219 63.7598 720.215 65.2832 720.801 67.1582C721.445 68.9746 721.797 70.9961 721.855 73.2227C721.914 75.4492 721.943 77.5879 721.943 79.6387V117.256C721.943 118.428 722.207 119.512 722.734 120.508C723.32 121.445 724.258 121.914 725.547 121.914C727.012 121.914 728.33 121.387 729.502 120.332C730.674 119.219 731.641 118.135 732.402 117.08L734.688 119.717Z" stroke="white" stroke-width="4" mask="url(#path-1-outside-1)"/>
	<path d="M804.297 112.861C802.246 115.498 799.99 117.959 797.529 120.244C795.127 122.529 792.49 124.521 789.619 126.221C786.807 127.92 783.818 129.268 780.654 130.264C777.49 131.26 774.209 131.758 770.811 131.758C766.475 131.758 762.49 130.996 758.857 129.473C755.225 127.891 752.09 125.752 749.453 123.057C746.816 120.303 744.766 117.08 743.301 113.389C741.836 109.639 741.104 105.625 741.104 101.348C741.104 97.832 741.602 94.375 742.598 90.9766C743.594 87.5781 745 84.3848 746.816 81.3965C748.633 78.4082 750.771 75.6543 753.232 73.1348C755.752 70.5566 758.506 68.3594 761.494 66.543C764.482 64.7266 767.646 63.3203 770.986 62.3242C774.326 61.2695 777.754 60.7422 781.27 60.7422C783.73 60.7422 786.045 61.0352 788.213 61.6211C790.439 62.207 792.402 63.1445 794.102 64.4336C795.801 65.6641 797.148 67.2754 798.145 69.2676C799.141 71.2012 799.639 73.5156 799.639 76.2109C799.639 78.4375 798.965 80.7812 797.617 83.2422C796.328 85.7031 794.6 88.1641 792.432 90.625C790.322 93.0859 787.92 95.5176 785.225 97.9199C782.529 100.264 779.775 102.461 776.963 104.512C774.209 106.504 771.543 108.262 768.965 109.785C766.387 111.309 764.131 112.48 762.197 113.301C764.365 115.996 766.885 118.193 769.756 119.893C772.627 121.592 775.674 122.441 778.896 122.441C780.947 122.441 783.027 122.061 785.137 121.299C787.246 120.479 789.268 119.453 791.201 118.223C793.193 116.992 795.068 115.645 796.826 114.18C798.643 112.715 800.254 111.338 801.66 110.049L804.297 112.861ZM783.115 79.4629C783.115 78.1152 782.881 76.8262 782.412 75.5957C782.002 74.3652 781.387 73.3105 780.566 72.4316C779.746 71.4941 778.75 70.7617 777.578 70.2344C776.465 69.6484 775.176 69.3555 773.711 69.3555C771.074 69.3555 768.643 70.293 766.416 72.168C764.189 73.9844 762.256 76.2402 760.615 78.9355C759.033 81.6309 757.773 84.502 756.836 87.5488C755.957 90.5371 755.518 93.1738 755.518 95.459C755.518 97.6855 755.869 99.9707 756.572 102.314C757.275 104.658 758.242 106.914 759.473 109.082C761.816 107.793 764.365 106.006 767.119 103.721C769.873 101.436 772.422 98.9453 774.766 96.25C777.168 93.4961 779.16 90.6543 780.742 87.7246C782.324 84.7949 783.115 82.041 783.115 79.4629Z" stroke="white" stroke-width="4" mask="url(#path-1-outside-1)"/>
	<path d="M889.551 119.717C888.848 121.24 887.939 122.676 886.826 124.023C885.713 125.371 884.453 126.572 883.047 127.627C881.699 128.682 880.234 129.502 878.652 130.088C877.07 130.732 875.43 131.055 873.73 131.055C869.102 131.055 865.732 129.795 863.623 127.275C861.572 124.697 860.547 121.211 860.547 116.816V81.0449C860.547 80.6348 860.518 80.166 860.459 79.6387C860.459 79.0527 860.371 78.5254 860.195 78.0566C860.02 77.5293 859.785 77.0898 859.492 76.7383C859.199 76.3867 858.789 76.2109 858.262 76.2109C856.621 76.2109 854.951 77.207 853.252 79.1992C851.611 81.1914 850 83.7695 848.418 86.9336C846.895 90.0977 845.459 93.6426 844.111 97.5684C842.822 101.494 841.68 105.391 840.684 109.258C839.688 113.066 838.896 116.641 838.311 119.98C837.783 123.32 837.52 125.986 837.52 127.979L821.523 133.604V74.541C821.523 73.3691 821.23 72.3145 820.645 71.377C820.059 70.3809 819.15 69.8828 817.92 69.8828C816.455 69.8828 815.107 70.4395 813.877 71.5527C812.705 72.6074 811.768 73.6621 811.064 74.7168L808.691 72.0801C809.395 70.6152 810.273 69.209 811.328 67.8613C812.441 66.4551 813.672 65.2246 815.02 64.1699C816.426 63.1152 817.92 62.2949 819.502 61.709C821.143 61.0645 822.842 60.7422 824.6 60.7422C829.17 60.7422 832.451 62.0312 834.443 64.6094C836.494 67.1289 837.52 70.5566 837.52 74.8926V103.545C838.047 101.143 838.75 98.418 839.629 95.3711C840.566 92.2656 841.68 89.1309 842.969 85.9668C844.258 82.8027 845.693 79.7266 847.275 76.7383C848.916 73.6914 850.703 70.9961 852.637 68.6523C854.57 66.25 856.68 64.3457 858.965 62.9395C861.25 61.4746 863.711 60.7422 866.348 60.7422C869.102 60.7422 871.182 61.3574 872.588 62.5879C873.994 63.7598 874.99 65.2832 875.576 67.1582C876.221 68.9746 876.572 70.9961 876.631 73.2227C876.689 75.4492 876.719 77.5879 876.719 79.6387V117.256C876.719 118.428 877.012 119.512 877.598 120.508C878.184 121.445 879.092 121.914 880.322 121.914C881.67 121.914 882.93 121.387 884.102 120.332C885.332 119.219 886.299 118.135 887.002 117.08L889.551 119.717Z" stroke="white" stroke-width="4" mask="url(#path-1-outside-1)"/>
	<path d="M964.961 120.244C964.082 121.768 962.998 123.232 961.709 124.639C960.42 125.986 958.984 127.158 957.402 128.154C955.879 129.15 954.238 129.941 952.48 130.527C950.723 131.113 948.936 131.406 947.119 131.406C944.834 131.406 942.461 130.557 940 128.857C937.539 127.158 935.137 125.137 932.793 122.793C930.449 120.391 928.223 117.959 926.113 115.498C924.004 112.979 922.129 110.898 920.488 109.258L919.082 110.049C918.789 111.104 918.525 112.422 918.291 114.004C918.057 115.586 917.852 117.227 917.676 118.926C917.5 120.625 917.354 122.295 917.236 123.936C917.178 125.518 917.119 126.865 917.061 127.979L900.889 133.604V9.58984L917.061 3.96484V101.523C917.705 99.3555 918.496 96.8652 919.434 94.0527C920.371 91.1816 921.455 88.252 922.686 85.2637C923.975 82.2168 925.439 79.2285 927.08 76.2988C928.721 73.3691 930.537 70.7617 932.529 68.4766C934.521 66.1328 936.719 64.2578 939.121 62.8516C941.523 61.4453 944.131 60.7422 946.943 60.7422C948.643 60.7422 950.166 61.0645 951.514 61.709C952.92 62.2949 954.092 63.1152 955.029 64.1699C956.025 65.2246 956.787 66.4551 957.314 67.8613C957.842 69.2676 958.105 70.791 958.105 72.4316C958.105 75.7715 957.285 78.9648 955.645 82.0117C954.004 85.0586 951.924 87.9004 949.404 90.5371C946.943 93.1738 944.248 95.5469 941.318 97.6562C938.447 99.7656 935.752 101.553 933.232 103.018C934.053 103.721 934.99 104.688 936.045 105.918C937.1 107.09 938.184 108.35 939.297 109.697C940.469 111.045 941.67 112.422 942.9 113.828C944.189 115.234 945.449 116.494 946.68 117.607C947.91 118.721 949.141 119.629 950.371 120.332C951.66 121.035 952.861 121.387 953.975 121.387C955.674 121.387 957.227 121.006 958.633 120.244C960.039 119.482 961.24 118.486 962.236 117.256L964.961 120.244ZM941.406 78.8477C941.406 77.8516 940.967 76.9141 940.088 76.0352C939.209 75.1562 938.301 74.7168 937.363 74.7168C936.191 74.7168 934.99 75.3027 933.76 76.4746C932.588 77.6465 931.445 79.1406 930.332 80.957C929.219 82.7734 928.135 84.7949 927.08 87.0215C926.084 89.248 925.176 91.416 924.355 93.5254C923.535 95.6348 922.803 97.5977 922.158 99.4141C921.572 101.172 921.133 102.49 920.84 103.369C921.66 102.783 922.715 101.904 924.004 100.732C925.352 99.5605 926.787 98.2422 928.311 96.7773C929.834 95.2539 931.357 93.6719 932.881 92.0312C934.463 90.332 935.869 88.6914 937.1 87.1094C938.389 85.4688 939.414 83.9453 940.176 82.5391C940.996 81.0742 941.406 79.8438 941.406 78.8477Z" stroke="white" stroke-width="4" mask="url(#path-1-outside-1)"/>
	<path d="M1002.05 132.021C997.715 132.021 993.643 131.26 989.834 129.736C986.084 128.154 982.803 125.986 979.99 123.232C977.236 120.479 975.039 117.256 973.398 113.564C971.816 109.814 971.025 105.742 971.025 101.348C971.025 96.3672 971.846 91.709 973.486 87.373C975.127 82.9785 977.383 79.0234 980.254 75.5078C983.184 71.9922 986.611 68.9453 990.537 66.3672C994.521 63.7891 998.828 61.7676 1003.46 60.3027L1006.01 63.3789C1003.37 65.3125 1000.91 67.5391 998.623 70.0586C996.338 72.5195 994.346 75.2148 992.646 78.1445C990.947 81.0156 989.6 84.0625 988.604 87.2852C987.607 90.4492 987.109 93.7012 987.109 97.041C987.109 99.8535 987.52 102.812 988.34 105.918C989.16 109.023 990.391 111.865 992.031 114.443C993.672 117.021 995.723 119.16 998.184 120.859C1000.7 122.5 1003.6 123.32 1006.88 123.32C1009.81 123.32 1012.33 122.793 1014.44 121.738C1016.61 120.684 1018.4 119.248 1019.8 117.432C1021.21 115.615 1022.27 113.506 1022.97 111.104C1023.67 108.643 1024.02 106.064 1024.02 103.369C1024.02 100.205 1023.41 96.9824 1022.18 93.7012C1020.95 90.3613 1019.25 87.2852 1017.08 84.4727C1014.97 81.6602 1012.48 79.3164 1009.61 77.4414C1006.74 75.5664 1003.66 74.4824 1000.38 74.1895C1002.43 71.8457 1004.69 69.6777 1007.15 67.6855C1009.61 65.6934 1012.1 63.7891 1014.62 61.9727C1018.02 63.0859 1021.01 64.7266 1023.58 66.8945C1026.22 69.0625 1028.42 71.5527 1030.18 74.3652C1031.99 77.1777 1033.37 80.2539 1034.31 83.5938C1035.24 86.875 1035.71 90.2148 1035.71 93.6133C1035.71 98.2422 1034.89 102.842 1033.25 107.412C1031.67 111.982 1029.38 116.113 1026.4 119.805C1023.47 123.438 1019.92 126.396 1015.76 128.682C1011.66 130.908 1007.09 132.021 1002.05 132.021Z" stroke="white" stroke-width="4" mask="url(#path-1-outside-1)"/>
</svg>
