<svg width="100" height="50" viewBox="0 0 101 213" fill="none" xmlns="http://www.w3.org/2000/svg">
<path d="M17.834 208.465L40.832 190.447L35.8516 89.373L8.75195 71.6484L71.7402 60.9551L60.4609 178.436L91.9551 198.064L17.834 208.465ZM73.3516 25.5059C73.3516 28.4355 72.7656 31.2188 71.5938 33.8555C70.4219 36.3945 68.8105 38.6895 66.7598 40.7402C64.709 42.6934 62.3652 44.2559 59.7285 45.4277C57.0918 46.502 54.3086 47.0391 51.3789 47.0391C48.2539 47.0391 45.3242 46.502 42.5898 45.4277C39.9531 44.2559 37.6582 42.6934 35.7051 40.7402C33.752 38.6895 32.1895 36.3945 31.0176 33.8555C29.8457 31.2188 29.2598 28.4355 29.2598 25.5059C29.2598 22.4785 29.8457 19.6953 31.0176 17.1562C32.1895 14.5195 33.752 12.2246 35.7051 10.2715C37.6582 8.31836 39.9531 6.80469 42.5898 5.73047C45.3242 4.55859 48.2539 3.97266 51.3789 3.97266C54.3086 3.97266 57.0918 4.55859 59.7285 5.73047C62.3652 6.80469 64.709 8.31836 66.7598 10.2715C68.8105 12.2246 70.4219 14.5195 71.5938 17.1562C72.7656 19.6953 73.3516 22.4785 73.3516 25.5059Z" fill="#40A90F"/>
<path d="M17.834 208.465L15.9838 206.103L7.19773 212.987L18.2508 211.436L17.834 208.465ZM40.832 190.447L42.6822 192.809L43.9048 191.851L43.8284 190.3L40.832 190.447ZM35.8516 89.373L38.8479 89.2254L38.7727 87.6989L37.4937 86.8624L35.8516 89.373ZM8.75195 71.6484L8.24984 68.6908L0.706976 69.9713L7.10984 74.1591L8.75195 71.6484ZM71.7402 60.9551L74.7265 61.2418L75.101 57.3416L71.2381 57.9974L71.7402 60.9551ZM60.4609 178.436L57.4747 178.149L57.2971 179.999L58.8741 180.982L60.4609 178.436ZM91.9551 198.064L92.3719 201.035L100.552 199.888L93.5419 195.518L91.9551 198.064ZM71.5938 33.8555L74.3176 35.1126L74.3265 35.0933L74.3352 35.0739L71.5938 33.8555ZM66.7598 40.7402L68.8287 42.9126L68.8552 42.8874L68.8811 42.8616L66.7598 40.7402ZM59.7285 45.4277L60.8604 48.206L60.904 48.1883L60.9469 48.1692L59.7285 45.4277ZM42.5898 45.4277L41.3714 48.1692L41.4316 48.1959L41.4929 48.22L42.5898 45.4277ZM35.7051 40.7402L33.5327 42.8092L33.5579 42.8357L33.5838 42.8616L35.7051 40.7402ZM31.0176 33.8555L28.2761 35.0739L28.2848 35.0933L28.2937 35.1126L31.0176 33.8555ZM31.0176 17.1562L33.7415 18.4134L33.7504 18.3941L33.759 18.3747L31.0176 17.1562ZM42.5898 5.73047L43.7217 8.50875L43.7468 8.49855L43.7716 8.4879L42.5898 5.73047ZM59.7285 5.73047L58.5101 8.4719L58.5531 8.491L58.5966 8.50875L59.7285 5.73047ZM71.5938 17.1562L68.8523 18.3747L68.861 18.3941L68.8699 18.4134L71.5938 17.1562ZM19.6841 210.826L42.6822 192.809L38.9819 188.086L15.9838 206.103L19.6841 210.826ZM43.8284 190.3L38.8479 89.2254L32.8552 89.5207L37.8357 190.595L43.8284 190.3ZM37.4937 86.8624L10.3941 69.1378L7.10984 74.1591L34.2094 91.8837L37.4937 86.8624ZM9.25407 74.6061L72.2424 63.9128L71.2381 57.9974L8.24984 68.6908L9.25407 74.6061ZM68.754 60.6684L57.4747 178.149L63.4472 178.722L74.7265 61.2418L68.754 60.6684ZM58.8741 180.982L90.3683 200.61L93.5419 195.518L62.0477 175.89L58.8741 180.982ZM91.5382 195.094L17.4171 205.494L18.2508 211.436L92.3719 201.035L91.5382 195.094ZM70.3516 25.5059C70.3516 28.0224 69.851 30.3899 68.8523 32.6371L74.3352 35.0739C75.6802 32.0476 76.3516 28.8487 76.3516 25.5059H70.3516ZM68.8699 32.5983C67.8518 34.8041 66.4484 36.809 64.6384 38.6189L68.8811 42.8616C71.1727 40.5699 72.992 37.9849 74.3176 35.1126L68.8699 32.5983ZM64.6908 38.5678C62.8936 40.2795 60.8388 41.6513 58.5101 42.6863L60.9469 48.1692C63.8916 46.8604 66.5244 45.1073 68.8287 42.9126L64.6908 38.5678ZM58.5966 42.6495C56.3298 43.573 53.932 44.0391 51.3789 44.0391V50.0391C54.6852 50.0391 57.8538 49.4309 60.8604 48.206L58.5966 42.6495ZM51.3789 44.0391C48.6052 44.0391 46.0499 43.5639 43.6868 42.6355L41.4929 48.22C44.5985 49.4401 47.9026 50.0391 51.3789 50.0391V44.0391ZM43.8083 42.6863C41.4928 41.6572 39.5076 40.3001 37.8264 38.6189L33.5838 42.8616C35.8088 45.0866 38.4135 46.8545 41.3714 48.1692L43.8083 42.6863ZM37.8775 38.6713C36.1486 36.8559 34.7735 34.8345 33.7415 32.5983L28.2937 35.1126C29.6054 37.9546 31.3553 40.523 33.5327 42.8092L37.8775 38.6713ZM33.759 32.6371C32.7603 30.3899 32.2598 28.0224 32.2598 25.5059H26.2598C26.2598 28.8487 26.9311 32.0476 28.2761 35.0739L33.759 32.6371ZM32.2598 25.5059C32.2598 22.8762 32.7661 20.5266 33.7415 18.4134L28.2937 15.8991C26.9253 18.864 26.2598 22.0808 26.2598 25.5059H32.2598ZM33.759 18.3747C34.7881 16.0592 36.1452 14.074 37.8264 12.3928L33.5838 8.15016C31.3587 10.3752 29.5908 12.9799 28.2761 15.9378L33.759 18.3747ZM37.8264 12.3928C39.488 10.7312 41.4437 9.43685 43.7217 8.50875L41.458 2.95219C38.4626 4.17252 35.8284 5.90554 33.5838 8.15016L37.8264 12.3928ZM43.7716 8.4879C46.1138 7.48409 48.6393 6.97266 51.3789 6.97266V0.972656C47.8685 0.972656 44.5346 1.63309 41.4081 2.97303L43.7716 8.4879ZM51.3789 6.97266C53.8955 6.97266 56.263 7.47318 58.5101 8.4719L60.9469 2.98903C57.9206 1.64401 54.7217 0.972656 51.3789 0.972656V6.97266ZM58.5966 8.50875C60.8877 9.44217 62.9132 10.751 64.6908 12.4439L68.8287 8.09907C66.5047 5.88575 63.8427 4.16721 60.8604 2.95219L58.5966 8.50875ZM64.6908 12.4439C66.4517 14.1209 67.8369 16.09 68.8523 18.3747L74.3352 15.9378C73.0069 12.9491 71.1694 10.3283 68.8287 8.09907L64.6908 12.4439ZM68.8699 18.4134C69.8452 20.5266 70.3516 22.8762 70.3516 25.5059H76.3516C76.3516 22.0808 75.6861 18.864 74.3176 15.8991L68.8699 18.4134Z" fill="black"/>
</svg>
