<svg width="90" height="100" viewBox="0 0 193 216" fill="none" xmlns="http://www.w3.org/2000/svg">
<path d="M182.736 4.02344L151.535 27.7539C151.73 33.6133 151.828 39.1797 151.828 44.4531C151.828 49.6289 151.828 54.6582 151.828 59.541C151.828 77.4121 151.486 92.4023 150.803 104.512C150.119 116.523 149.387 126.338 148.605 133.955C147.629 142.842 146.604 149.922 145.529 155.195C143.674 162.129 140.842 169.014 137.033 175.85C133.225 182.588 128.342 188.691 122.385 194.16C116.525 199.629 109.445 204.023 101.145 207.344C92.9414 210.762 83.4199 212.471 72.5801 212.471C60.7637 212.471 50.5098 210.664 41.8184 207.051C33.127 203.535 25.9004 198.896 20.1387 193.135C14.4746 187.275 10.2266 180.732 7.39453 173.506C4.66016 166.182 3.29297 158.857 3.29297 151.533C3.29297 145.967 4.17188 140.596 5.92969 135.42C7.78516 130.244 10.373 125.654 13.6934 121.65C17.0137 117.646 20.9688 114.473 25.5586 112.129C30.1484 109.688 35.2266 108.467 40.793 108.467C45.4805 108.467 50.4609 109.346 55.7344 111.104C52.2188 113.154 49.1914 115.449 46.6523 117.988C44.2109 120.527 42.1113 123.164 40.3535 125.898C38.6934 128.633 37.375 131.367 36.3984 134.102C35.4219 136.738 34.6895 139.277 34.2012 141.719C33.7129 144.062 33.3711 146.162 33.1758 148.018C33.0781 149.873 33.0293 151.289 33.0293 152.266C33.0293 158.906 33.9082 164.961 35.666 170.43C37.5215 175.801 40.0605 180.439 43.2832 184.346C46.6035 188.154 50.5586 191.133 55.1484 193.281C59.7383 195.332 64.7676 196.357 70.2363 196.357C77.0723 196.357 83.2246 194.941 88.6934 192.109C94.2598 189.18 98.9961 184.932 102.902 179.365C106.809 173.799 109.836 166.914 111.984 158.711C114.133 150.41 115.207 140.84 115.207 130C115.207 122.871 114.963 115.352 114.475 107.441C114.084 99.4336 113.498 91.377 112.717 83.2715C112.033 75.0684 111.203 66.9141 110.227 58.8086C109.25 50.7031 108.225 42.9395 107.15 35.5176L68.0391 12.373L182.736 4.02344Z" fill="#40A90F"/>
<path d="M182.736 4.02344L184.552 6.41128L192.59 0.29818L182.519 1.03136L182.736 4.02344ZM151.535 27.7539L149.719 25.3661L148.485 26.3045L148.537 27.8539L151.535 27.7539ZM150.803 104.512L153.798 104.682L153.798 104.681L150.803 104.512ZM148.605 133.955L151.588 134.283L151.589 134.272L151.59 134.261L148.605 133.955ZM145.529 155.195L148.427 155.971L148.451 155.883L148.469 155.794L145.529 155.195ZM137.033 175.85L139.645 177.326L139.649 177.318L139.654 177.31L137.033 175.85ZM122.385 194.16L120.356 191.95L120.347 191.959L120.338 191.967L122.385 194.16ZM101.145 207.344L100.03 204.558L100.01 204.566L99.9907 204.575L101.145 207.344ZM41.8184 207.051L42.97 204.281L42.9567 204.275L42.9433 204.27L41.8184 207.051ZM20.1387 193.135L17.9817 195.22L17.9994 195.238L18.0174 195.256L20.1387 193.135ZM7.39453 173.506L4.58401 174.555L4.5925 174.578L4.60136 174.6L7.39453 173.506ZM5.92969 135.42L3.10567 134.408L3.09716 134.431L3.08904 134.455L5.92969 135.42ZM25.5586 112.129L26.9229 114.801L26.9453 114.789L26.9674 114.778L25.5586 112.129ZM55.7344 111.104L57.246 113.695L62.973 110.354L56.6831 108.257L55.7344 111.104ZM46.6523 117.988L44.531 115.867L44.5102 115.888L44.4898 115.909L46.6523 117.988ZM40.3535 125.898L37.83 124.276L37.8091 124.309L37.7892 124.342L40.3535 125.898ZM36.3984 134.102L39.2117 135.144L39.2178 135.127L39.2237 135.111L36.3984 134.102ZM34.2012 141.719L37.1381 142.331L37.1406 142.319L37.1429 142.307L34.2012 141.719ZM33.1758 148.018L30.1923 147.704L30.1841 147.782L30.1799 147.86L33.1758 148.018ZM35.666 170.43L32.8099 171.348L32.8199 171.379L32.8304 171.409L35.666 170.43ZM43.2832 184.346L40.9691 186.255L40.9951 186.286L41.0219 186.317L43.2832 184.346ZM55.1484 193.281L53.8766 195.998L53.9005 196.01L53.9246 196.02L55.1484 193.281ZM88.6934 192.109L90.0729 194.773L90.0818 194.769L90.0906 194.764L88.6934 192.109ZM111.984 158.711L114.887 159.471L114.889 159.463L111.984 158.711ZM114.475 107.441L111.478 107.588L111.479 107.607L111.48 107.626L114.475 107.441ZM112.717 83.2715L109.727 83.5206L109.729 83.54L109.731 83.5593L112.717 83.2715ZM107.15 35.5176L110.119 35.0878L109.914 33.6669L108.678 32.9358L107.15 35.5176ZM68.0391 12.373L67.8212 9.38096L58.2674 10.0765L66.5112 14.9549L68.0391 12.373ZM180.92 1.6356L149.719 25.3661L153.351 30.1417L184.552 6.41128L180.92 1.6356ZM148.537 27.8539C148.731 33.6835 148.828 39.2164 148.828 44.4531H154.828C154.828 39.1429 154.73 33.543 154.533 27.654L148.537 27.8539ZM148.828 44.4531C148.828 44.4632 148.828 44.4733 148.828 44.4835C148.828 44.4936 148.828 44.5037 148.828 44.5138C148.828 44.5239 148.828 44.534 148.828 44.5441C148.828 44.5542 148.828 44.5643 148.828 44.5744C148.828 44.5845 148.828 44.5946 148.828 44.6047C148.828 44.6148 148.828 44.6249 148.828 44.635C148.828 44.6451 148.828 44.6552 148.828 44.6653C148.828 44.6754 148.828 44.6855 148.828 44.6956C148.828 44.7057 148.828 44.7158 148.828 44.7259C148.828 44.736 148.828 44.7461 148.828 44.7562C148.828 44.7663 148.828 44.7764 148.828 44.7865C148.828 44.7966 148.828 44.8067 148.828 44.8168C148.828 44.8269 148.828 44.837 148.828 44.8471C148.828 44.8572 148.828 44.8673 148.828 44.8774C148.828 44.8875 148.828 44.8976 148.828 44.9077C148.828 44.9177 148.828 44.9278 148.828 44.9379C148.828 44.948 148.828 44.9581 148.828 44.9682C148.828 44.9783 148.828 44.9884 148.828 44.9985C148.828 45.0086 148.828 45.0186 148.828 45.0287C148.828 45.0388 148.828 45.0489 148.828 45.059C148.828 45.0691 148.828 45.0792 148.828 45.0892C148.828 45.0993 148.828 45.1094 148.828 45.1195C148.828 45.1296 148.828 45.1397 148.828 45.1498C148.828 45.1598 148.828 45.1699 148.828 45.18C148.828 45.1901 148.828 45.2002 148.828 45.2102C148.828 45.2203 148.828 45.2304 148.828 45.2405C148.828 45.2506 148.828 45.2606 148.828 45.2707C148.828 45.2808 148.828 45.2909 148.828 45.301C148.828 45.311 148.828 45.3211 148.828 45.3312C148.828 45.3413 148.828 45.3513 148.828 45.3614C148.828 45.3715 148.828 45.3816 148.828 45.3916C148.828 45.4017 148.828 45.4118 148.828 45.4219C148.828 45.4319 148.828 45.442 148.828 45.4521C148.828 45.4622 148.828 45.4722 148.828 45.4823C148.828 45.4924 148.828 45.5024 148.828 45.5125C148.828 45.5226 148.828 45.5327 148.828 45.5427C148.828 45.5528 148.828 45.5629 148.828 45.5729C148.828 45.583 148.828 45.5931 148.828 45.6031C148.828 45.6132 148.828 45.6233 148.828 45.6333C148.828 45.6434 148.828 45.6535 148.828 45.6635C148.828 45.6736 148.828 45.6836 148.828 45.6937C148.828 45.7038 148.828 45.7138 148.828 45.7239C148.828 45.734 148.828 45.744 148.828 45.7541C148.828 45.7641 148.828 45.7742 148.828 45.7843C148.828 45.7943 148.828 45.8044 148.828 45.8144C148.828 45.8245 148.828 45.8346 148.828 45.8446C148.828 45.8547 148.828 45.8647 148.828 45.8748C148.828 45.8848 148.828 45.8949 148.828 45.905C148.828 45.915 148.828 45.9251 148.828 45.9351C148.828 45.9452 148.828 45.9552 148.828 45.9653C148.828 45.9753 148.828 45.9854 148.828 45.9954C148.828 46.0055 148.828 46.0155 148.828 46.0256C148.828 46.0356 148.828 46.0457 148.828 46.0557C148.828 46.0658 148.828 46.0758 148.828 46.0859C148.828 46.0959 148.828 46.106 148.828 46.116C148.828 46.1261 148.828 46.1361 148.828 46.1462C148.828 46.1562 148.828 46.1663 148.828 46.1763C148.828 46.1864 148.828 46.1964 148.828 46.2064C148.828 46.2165 148.828 46.2265 148.828 46.2366C148.828 46.2466 148.828 46.2567 148.828 46.2667C148.828 46.2767 148.828 46.2868 148.828 46.2968C148.828 46.3069 148.828 46.3169 148.828 46.3269C148.828 46.337 148.828 46.347 148.828 46.3571C148.828 46.3671 148.828 46.3771 148.828 46.3872C148.828 46.3972 148.828 46.4073 148.828 46.4173C148.828 46.4273 148.828 46.4374 148.828 46.4474C148.828 46.4574 148.828 46.4675 148.828 46.4775C148.828 46.4875 148.828 46.4976 148.828 46.5076C148.828 46.5176 148.828 46.5277 148.828 46.5377C148.828 46.5477 148.828 46.5578 148.828 46.5678C148.828 46.5778 148.828 46.5879 148.828 46.5979C148.828 46.6079 148.828 46.6179 148.828 46.628C148.828 46.638 148.828 46.648 148.828 46.6581C148.828 46.6681 148.828 46.6781 148.828 46.6881C148.828 46.6982 148.828 46.7082 148.828 46.7182C148.828 46.7282 148.828 46.7383 148.828 46.7483C148.828 46.7583 148.828 46.7683 148.828 46.7784C148.828 46.7884 148.828 46.7984 148.828 46.8084C148.828 46.8184 148.828 46.8285 148.828 46.8385C148.828 46.8485 148.828 46.8585 148.828 46.8685C148.828 46.8786 148.828 46.8886 148.828 46.8986C148.828 46.9086 148.828 46.9186 148.828 46.9287C148.828 46.9387 148.828 46.9487 148.828 46.9587C148.828 46.9687 148.828 46.9787 148.828 46.9888C148.828 46.9988 148.828 47.0088 148.828 47.0188C148.828 47.0288 148.828 47.0388 148.828 47.0488C148.828 47.0588 148.828 47.0689 148.828 47.0789C148.828 47.0889 148.828 47.0989 148.828 47.1089C148.828 47.1189 148.828 47.1289 148.828 47.1389C148.828 47.1489 148.828 47.159 148.828 47.169C148.828 47.179 148.828 47.189 148.828 47.199C148.828 47.209 148.828 47.219 148.828 47.229C148.828 47.239 148.828 47.249 148.828 47.259C148.828 47.269 148.828 47.279 148.828 47.289C148.828 47.299 148.828 47.309 148.828 47.319C148.828 47.329 148.828 47.3391 148.828 47.3491C148.828 47.3591 148.828 47.3691 148.828 47.3791C148.828 47.3891 148.828 47.3991 148.828 47.4091C148.828 47.4191 148.828 47.4291 148.828 47.4391C148.828 47.4491 148.828 47.459 148.828 47.469C148.828 47.479 148.828 47.489 148.828 47.499C148.828 47.509 148.828 47.519 148.828 47.529C148.828 47.539 148.828 47.549 148.828 47.559C148.828 47.569 148.828 47.579 148.828 47.589C148.828 47.599 148.828 47.609 148.828 47.619C148.828 47.629 148.828 47.6389 148.828 47.6489C148.828 47.6589 148.828 47.6689 148.828 47.6789C148.828 47.6889 148.828 47.6989 148.828 47.7089C148.828 47.7189 148.828 47.7288 148.828 47.7388C148.828 47.7488 148.828 47.7588 148.828 47.7688C148.828 47.7788 148.828 47.7888 148.828 47.7987C148.828 47.8087 148.828 47.8187 148.828 47.8287C148.828 47.8387 148.828 47.8487 148.828 47.8587C148.828 47.8686 148.828 47.8786 148.828 47.8886C148.828 47.8986 148.828 47.9086 148.828 47.9185C148.828 47.9285 148.828 47.9385 148.828 47.9485C148.828 47.9585 148.828 47.9684 148.828 47.9784C148.828 47.9884 148.828 47.9984 148.828 48.0084C148.828 48.0183 148.828 48.0283 148.828 48.0383C148.828 48.0483 148.828 48.0582 148.828 48.0682C148.828 48.0782 148.828 48.0882 148.828 48.0981C148.828 48.1081 148.828 48.1181 148.828 48.128C148.828 48.138 148.828 48.148 148.828 48.158C148.828 48.1679 148.828 48.1779 148.828 48.1879C148.828 48.1978 148.828 48.2078 148.828 48.2178C148.828 48.2278 148.828 48.2377 148.828 48.2477C148.828 48.2577 148.828 48.2676 148.828 48.2776C148.828 48.2876 148.828 48.2975 148.828 48.3075C148.828 48.3175 148.828 48.3274 148.828 48.3374C148.828 48.3474 148.828 48.3573 148.828 48.3673C148.828 48.3772 148.828 48.3872 148.828 48.3972C148.828 48.4071 148.828 48.4171 148.828 48.4271C148.828 48.437 148.828 48.447 148.828 48.4569C148.828 48.4669 148.828 48.4769 148.828 48.4868C148.828 48.4968 148.828 48.5067 148.828 48.5167C148.828 48.5267 148.828 48.5366 148.828 48.5466C148.828 48.5565 148.828 48.5665 148.828 48.5764C148.828 48.5864 148.828 48.5963 148.828 48.6063C148.828 48.6163 148.828 48.6262 148.828 48.6362C148.828 48.6461 148.828 48.6561 148.828 48.666C148.828 48.676 148.828 48.6859 148.828 48.6959C148.828 48.7058 148.828 48.7158 148.828 48.7257C148.828 48.7357 148.828 48.7456 148.828 48.7556C148.828 48.7655 148.828 48.7755 148.828 48.7854C148.828 48.7954 148.828 48.8053 148.828 48.8153C148.828 48.8252 148.828 48.8352 148.828 48.8451C148.828 48.8551 148.828 48.865 148.828 48.8749C148.828 48.8849 148.828 48.8948 148.828 48.9048C148.828 48.9147 148.828 48.9247 148.828 48.9346C148.828 48.9445 148.828 48.9545 148.828 48.9644C148.828 48.9744 148.828 48.9843 148.828 48.9943C148.828 49.0042 148.828 49.0141 148.828 49.0241C148.828 49.034 148.828 49.044 148.828 49.0539C148.828 49.0638 148.828 49.0738 148.828 49.0837C148.828 49.0936 148.828 49.1036 148.828 49.1135C148.828 49.1234 148.828 49.1334 148.828 49.1433C148.828 49.1533 148.828 49.1632 148.828 49.1731C148.828 49.1831 148.828 49.193 148.828 49.2029C148.828 49.2128 148.828 49.2228 148.828 49.2327C148.828 49.2426 148.828 49.2526 148.828 49.2625C148.828 49.2724 148.828 49.2824 148.828 49.2923C148.828 49.3022 148.828 49.3122 148.828 49.3221C148.828 49.332 148.828 49.3419 148.828 49.3519C148.828 49.3618 148.828 49.3717 148.828 49.3816C148.828 49.3916 148.828 49.4015 148.828 49.4114C148.828 49.4213 148.828 49.4313 148.828 49.4412C148.828 49.4511 148.828 49.461 148.828 49.471C148.828 49.4809 148.828 49.4908 148.828 49.5007C148.828 49.5106 148.828 49.5206 148.828 49.5305C148.828 49.5404 148.828 49.5503 148.828 49.5602C148.828 49.5702 148.828 49.5801 148.828 49.59C148.828 49.5999 148.828 49.6098 148.828 49.6197C148.828 49.6297 148.828 49.6396 148.828 49.6495C148.828 49.6594 148.828 49.6693 148.828 49.6792C148.828 49.6892 148.828 49.6991 148.828 49.709C148.828 49.7189 148.828 49.7288 148.828 49.7387C148.828 49.7486 148.828 49.7585 148.828 49.7685C148.828 49.7784 148.828 49.7883 148.828 49.7982C148.828 49.8081 148.828 49.818 148.828 49.8279C148.828 49.8378 148.828 49.8477 148.828 49.8576C148.828 49.8675 148.828 49.8775 148.828 49.8874C148.828 49.8973 148.828 49.9072 148.828 49.9171C148.828 49.927 148.828 49.9369 148.828 49.9468C148.828 49.9567 148.828 49.9666 148.828 49.9765C148.828 49.9864 148.828 49.9963 148.828 50.0062C148.828 50.0161 148.828 50.026 148.828 50.0359C148.828 50.0458 148.828 50.0557 148.828 50.0656C148.828 50.0755 148.828 50.0854 148.828 50.0953C148.828 50.1052 148.828 50.1151 148.828 50.125C148.828 50.1349 148.828 50.1448 148.828 50.1547C148.828 50.1646 148.828 50.1745 148.828 50.1844C148.828 50.1943 148.828 50.2042 148.828 50.2141C148.828 50.224 148.828 50.2339 148.828 50.2438C148.828 50.2537 148.828 50.2635 148.828 50.2734C148.828 50.2833 148.828 50.2932 148.828 50.3031C148.828 50.313 148.828 50.3229 148.828 50.3328C148.828 50.3427 148.828 50.3526 148.828 50.3625C148.828 50.3723 148.828 50.3822 148.828 50.3921C148.828 50.402 148.828 50.4119 148.828 50.4218C148.828 50.4317 148.828 50.4416 148.828 50.4514C148.828 50.4613 148.828 50.4712 148.828 50.4811C148.828 50.491 148.828 50.5009 148.828 50.5107C148.828 50.5206 148.828 50.5305 148.828 50.5404C148.828 50.5503 148.828 50.5602 148.828 50.57C148.828 50.5799 148.828 50.5898 148.828 50.5997C148.828 50.6096 148.828 50.6194 148.828 50.6293C148.828 50.6392 148.828 50.6491 148.828 50.659C148.828 50.6688 148.828 50.6787 148.828 50.6886C148.828 50.6985 148.828 50.7083 148.828 50.7182C148.828 50.7281 148.828 50.738 148.828 50.7478C148.828 50.7577 148.828 50.7676 148.828 50.7775C148.828 50.7873 148.828 50.7972 148.828 50.8071C148.828 50.8169 148.828 50.8268 148.828 50.8367C148.828 50.8466 148.828 50.8564 148.828 50.8663C148.828 50.8762 148.828 50.886 148.828 50.8959C148.828 50.9058 148.828 50.9156 148.828 50.9255C148.828 50.9354 148.828 50.9452 148.828 50.9551C148.828 50.965 148.828 50.9748 148.828 50.9847C148.828 50.9946 148.828 51.0044 148.828 51.0143C148.828 51.0242 148.828 51.034 148.828 51.0439C148.828 51.0538 148.828 51.0636 148.828 51.0735C148.828 51.0833 148.828 51.0932 148.828 51.1031C148.828 51.1129 148.828 51.1228 148.828 51.1326C148.828 51.1425 148.828 51.1524 148.828 51.1622C148.828 51.1721 148.828 51.1819 148.828 51.1918C148.828 51.2017 148.828 51.2115 148.828 51.2214C148.828 51.2312 148.828 51.2411 148.828 51.2509C148.828 51.2608 148.828 51.2706 148.828 51.2805C148.828 51.2904 148.828 51.3002 148.828 51.3101C148.828 51.3199 148.828 51.3298 148.828 51.3396C148.828 51.3495 148.828 51.3593 148.828 51.3692C148.828 51.379 148.828 51.3889 148.828 51.3987C148.828 51.4086 148.828 51.4184 148.828 51.4283C148.828 51.4381 148.828 51.448 148.828 51.4578C148.828 51.4677 148.828 51.4775 148.828 51.4874C148.828 51.4972 148.828 51.507 148.828 51.5169C148.828 51.5267 148.828 51.5366 148.828 51.5464C148.828 51.5563 148.828 51.5661 148.828 51.576C148.828 51.5858 148.828 51.5956 148.828 51.6055C148.828 51.6153 148.828 51.6252 148.828 51.635C148.828 51.6448 148.828 51.6547 148.828 51.6645C148.828 51.6744 148.828 51.6842 148.828 51.694C148.828 51.7039 148.828 51.7137 148.828 51.7236C148.828 51.7334 148.828 51.7432 148.828 51.7531C148.828 51.7629 148.828 51.7727 148.828 51.7826C148.828 51.7924 148.828 51.8022 148.828 51.8121C148.828 51.8219 148.828 51.8317 148.828 51.8416C148.828 51.8514 148.828 51.8612 148.828 51.8711C148.828 51.8809 148.828 51.8907 148.828 51.9006C148.828 51.9104 148.828 51.9202 148.828 51.9301C148.828 51.9399 148.828 51.9497 148.828 51.9595C148.828 51.9694 148.828 51.9792 148.828 51.989C148.828 51.9989 148.828 52.0087 148.828 52.0185C148.828 52.0283 148.828 52.0382 148.828 52.048C148.828 52.0578 148.828 52.0676 148.828 52.0775C148.828 52.0873 148.828 52.0971 148.828 52.1069C148.828 52.1168 148.828 52.1266 148.828 52.1364C148.828 52.1462 148.828 52.156 148.828 52.1659C148.828 52.1757 148.828 52.1855 148.828 52.1953C148.828 52.2051 148.828 52.215 148.828 52.2248C148.828 52.2346 148.828 52.2444 148.828 52.2542C148.828 52.2641 148.828 52.2739 148.828 52.2837C148.828 52.2935 148.828 52.3033 148.828 52.3131C148.828 52.3229 148.828 52.3328 148.828 52.3426C148.828 52.3524 148.828 52.3622 148.828 52.372C148.828 52.3818 148.828 52.3916 148.828 52.4015C148.828 52.4113 148.828 52.4211 148.828 52.4309C148.828 52.4407 148.828 52.4505 148.828 52.4603C148.828 52.4701 148.828 52.4799 148.828 52.4897C148.828 52.4995 148.828 52.5094 148.828 52.5192C148.828 52.529 148.828 52.5388 148.828 52.5486C148.828 52.5584 148.828 52.5682 148.828 52.578C148.828 52.5878 148.828 52.5976 148.828 52.6074C148.828 52.6172 148.828 52.627 148.828 52.6368C148.828 52.6466 148.828 52.6564 148.828 52.6662C148.828 52.676 148.828 52.6858 148.828 52.6956C148.828 52.7054 148.828 52.7152 148.828 52.725C148.828 52.7348 148.828 52.7446 148.828 52.7544C148.828 52.7642 148.828 52.774 148.828 52.7838C148.828 52.7936 148.828 52.8034 148.828 52.8132C148.828 52.823 148.828 52.8328 148.828 52.8426C148.828 52.8524 148.828 52.8622 148.828 52.872C148.828 52.8818 148.828 52.8916 148.828 52.9014C148.828 52.9112 148.828 52.9209 148.828 52.9307C148.828 52.9405 148.828 52.9503 148.828 52.9601C148.828 52.9699 148.828 52.9797 148.828 52.9895C148.828 52.9993 148.828 53.0091 148.828 53.0188C148.828 53.0286 148.828 53.0384 148.828 53.0482C148.828 53.058 148.828 53.0678 148.828 53.0776C148.828 53.0874 148.828 53.0971 148.828 53.1069C148.828 53.1167 148.828 53.1265 148.828 53.1363C148.828 53.1461 148.828 53.1558 148.828 53.1656C148.828 53.1754 148.828 53.1852 148.828 53.195C148.828 53.2048 148.828 53.2145 148.828 53.2243C148.828 53.2341 148.828 53.2439 148.828 53.2537C148.828 53.2634 148.828 53.2732 148.828 53.283C148.828 53.2928 148.828 53.3025 148.828 53.3123C148.828 53.3221 148.828 53.3319 148.828 53.3417C148.828 53.3514 148.828 53.3612 148.828 53.371C148.828 53.3808 148.828 53.3905 148.828 53.4003C148.828 53.4101 148.828 53.4199 148.828 53.4296C148.828 53.4394 148.828 53.4492 148.828 53.4589C148.828 53.4687 148.828 53.4785 148.828 53.4883C148.828 53.498 148.828 53.5078 148.828 53.5176C148.828 53.5273 148.828 53.5371 148.828 53.5469C148.828 53.5566 148.828 53.5664 148.828 53.5762C148.828 53.5859 148.828 53.5957 148.828 53.6055C148.828 53.6152 148.828 53.625 148.828 53.6348C148.828 53.6445 148.828 53.6543 148.828 53.6641C148.828 53.6738 148.828 53.6836 148.828 53.6933C148.828 53.7031 148.828 53.7129 148.828 53.7226C148.828 53.7324 148.828 53.7422 148.828 53.7519C148.828 53.7617 148.828 53.7714 148.828 53.7812C148.828 53.791 148.828 53.8007 148.828 53.8105C148.828 53.8202 148.828 53.83 148.828 53.8397C148.828 53.8495 148.828 53.8593 148.828 53.869C148.828 53.8788 148.828 53.8885 148.828 53.8983C148.828 53.908 148.828 53.9178 148.828 53.9275C148.828 53.9373 148.828 53.947 148.828 53.9568C148.828 53.9666 148.828 53.9763 148.828 53.9861C148.828 53.9958 148.828 54.0056 148.828 54.0153C148.828 54.0251 148.828 54.0348 148.828 54.0446C148.828 54.0543 148.828 54.0641 148.828 54.0738C148.828 54.0835 148.828 54.0933 148.828 54.103C148.828 54.1128 148.828 54.1225 148.828 54.1323C148.828 54.142 148.828 54.1518 148.828 54.1615C148.828 54.1713 148.828 54.181 148.828 54.1907C148.828 54.2005 148.828 54.2102 148.828 54.22C148.828 54.2297 148.828 54.2395 148.828 54.2492C148.828 54.2589 148.828 54.2687 148.828 54.2784C148.828 54.2882 148.828 54.2979 148.828 54.3076C148.828 54.3174 148.828 54.3271 148.828 54.3369C148.828 54.3466 148.828 54.3563 148.828 54.3661C148.828 54.3758 148.828 54.3855 148.828 54.3953C148.828 54.405 148.828 54.4148 148.828 54.4245C148.828 54.4342 148.828 54.444 148.828 54.4537C148.828 54.4634 148.828 54.4732 148.828 54.4829C148.828 54.4926 148.828 54.5024 148.828 54.5121C148.828 54.5218 148.828 54.5315 148.828 54.5413C148.828 54.551 148.828 54.5607 148.828 54.5705C148.828 54.5802 148.828 54.5899 148.828 54.5996C148.828 54.6094 148.828 54.6191 148.828 54.6288C148.828 54.6386 148.828 54.6483 148.828 54.658C148.828 54.6677 148.828 54.6775 148.828 54.6872C148.828 54.6969 148.828 54.7066 148.828 54.7164C148.828 54.7261 148.828 54.7358 148.828 54.7455C148.828 54.7552 148.828 54.765 148.828 54.7747C148.828 54.7844 148.828 54.7941 148.828 54.8039C148.828 54.8136 148.828 54.8233 148.828 54.833C148.828 54.8427 148.828 54.8524 148.828 54.8622C148.828 54.8719 148.828 54.8816 148.828 54.8913C148.828 54.901 148.828 54.9107 148.828 54.9205C148.828 54.9302 148.828 54.9399 148.828 54.9496C148.828 54.9593 148.828 54.969 148.828 54.9788C148.828 54.9885 148.828 54.9982 148.828 55.0079C148.828 55.0176 148.828 55.0273 148.828 55.037C148.828 55.0467 148.828 55.0564 148.828 55.0662C148.828 55.0759 148.828 55.0856 148.828 55.0953C148.828 55.105 148.828 55.1147 148.828 55.1244C148.828 55.1341 148.828 55.1438 148.828 55.1535C148.828 55.1632 148.828 55.1729 148.828 55.1826C148.828 55.1924 148.828 55.2021 148.828 55.2118C148.828 55.2215 148.828 55.2312 148.828 55.2409C148.828 55.2506 148.828 55.2603 148.828 55.27C148.828 55.2797 148.828 55.2894 148.828 55.2991C148.828 55.3088 148.828 55.3185 148.828 55.3282C148.828 55.3379 148.828 55.3476 148.828 55.3573C148.828 55.367 148.828 55.3767 148.828 55.3864C148.828 55.3961 148.828 55.4058 148.828 55.4155C148.828 55.4252 148.828 55.4349 148.828 55.4446C148.828 55.4543 148.828 55.464 148.828 55.4736C148.828 55.4833 148.828 55.493 148.828 55.5027C148.828 55.5124 148.828 55.5221 148.828 55.5318C148.828 55.5415 148.828 55.5512 148.828 55.5609C148.828 55.5706 148.828 55.5803 148.828 55.59C148.828 55.5996 148.828 55.6093 148.828 55.619C148.828 55.6287 148.828 55.6384 148.828 55.6481C148.828 55.6578 148.828 55.6675 148.828 55.6771C148.828 55.6868 148.828 55.6965 148.828 55.7062C148.828 55.7159 148.828 55.7256 148.828 55.7353C148.828 55.7449 148.828 55.7546 148.828 55.7643C148.828 55.774 148.828 55.7837 148.828 55.7934C148.828 55.803 148.828 55.8127 148.828 55.8224C148.828 55.8321 148.828 55.8418 148.828 55.8514C148.828 55.8611 148.828 55.8708 148.828 55.8805C148.828 55.8902 148.828 55.8998 148.828 55.9095C148.828 55.9192 148.828 55.9289 148.828 55.9385C148.828 55.9482 148.828 55.9579 148.828 55.9676C148.828 55.9772 148.828 55.9869 148.828 55.9966C148.828 56.0063 148.828 56.0159 148.828 56.0256C148.828 56.0353 148.828 56.045 148.828 56.0546C148.828 56.0643 148.828 56.074 148.828 56.0836C148.828 56.0933 148.828 56.103 148.828 56.1127C148.828 56.1223 148.828 56.132 148.828 56.1417C148.828 56.1513 148.828 56.161 148.828 56.1707C148.828 56.1803 148.828 56.19 148.828 56.1997C148.828 56.2093 148.828 56.219 148.828 56.2287C148.828 56.2383 148.828 56.248 148.828 56.2577C148.828 56.2673 148.828 56.277 148.828 56.2867C148.828 56.2963 148.828 56.306 148.828 56.3156C148.828 56.3253 148.828 56.335 148.828 56.3446C148.828 56.3543 148.828 56.3639 148.828 56.3736C148.828 56.3833 148.828 56.3929 148.828 56.4026C148.828 56.4122 148.828 56.4219 148.828 56.4316C148.828 56.4412 148.828 56.4509 148.828 56.4605C148.828 56.4702 148.828 56.4798 148.828 56.4895C148.828 56.4992 148.828 56.5088 148.828 56.5185C148.828 56.5281 148.828 56.5378 148.828 56.5474C148.828 56.5571 148.828 56.5667 148.828 56.5764C148.828 56.586 148.828 56.5957 148.828 56.6053C148.828 56.615 148.828 56.6246 148.828 56.6343C148.828 56.6439 148.828 56.6536 148.828 56.6632C148.828 56.6729 148.828 56.6825 148.828 56.6922C148.828 56.7018 148.828 56.7115 148.828 56.7211C148.828 56.7308 148.828 56.7404 148.828 56.7501C148.828 56.7597 148.828 56.7693 148.828 56.779C148.828 56.7886 148.828 56.7983 148.828 56.8079C148.828 56.8176 148.828 56.8272 148.828 56.8368C148.828 56.8465 148.828 56.8561 148.828 56.8658C148.828 56.8754 148.828 56.885 148.828 56.8947C148.828 56.9043 148.828 56.914 148.828 56.9236C148.828 56.9332 148.828 56.9429 148.828 56.9525C148.828 56.9622 148.828 56.9718 148.828 56.9814C148.828 56.9911 148.828 57.0007 148.828 57.0103C148.828 57.02 148.828 57.0296 148.828 57.0392C148.828 57.0489 148.828 57.0585 148.828 57.0681C148.828 57.0778 148.828 57.0874 148.828 57.097C148.828 57.1067 148.828 57.1163 148.828 57.1259C148.828 57.1356 148.828 57.1452 148.828 57.1548C148.828 57.1644 148.828 57.1741 148.828 57.1837C148.828 57.1933 148.828 57.203 148.828 57.2126C148.828 57.2222 148.828 57.2318 148.828 57.2415C148.828 57.2511 148.828 57.2607 148.828 57.2703C148.828 57.28 148.828 57.2896 148.828 57.2992C148.828 57.3088 148.828 57.3185 148.828 57.3281C148.828 57.3377 148.828 57.3473 148.828 57.357C148.828 57.3666 148.828 57.3762 148.828 57.3858C148.828 57.3954 148.828 57.4051 148.828 57.4147C148.828 57.4243 148.828 57.4339 148.828 57.4435C148.828 57.4532 148.828 57.4628 148.828 57.4724C148.828 57.482 148.828 57.4916 148.828 57.5012C148.828 57.5109 148.828 57.5205 148.828 57.5301C148.828 57.5397 148.828 57.5493 148.828 57.5589C148.828 57.5685 148.828 57.5782 148.828 57.5878C148.828 57.5974 148.828 57.607 148.828 57.6166C148.828 57.6262 148.828 57.6358 148.828 57.6454C148.828 57.655 148.828 57.6647 148.828 57.6743C148.828 57.6839 148.828 57.6935 148.828 57.7031C148.828 57.7127 148.828 57.7223 148.828 57.7319C148.828 57.7415 148.828 57.7511 148.828 57.7607C148.828 57.7703 148.828 57.7799 148.828 57.7896C148.828 57.7992 148.828 57.8088 148.828 57.8184C148.828 57.828 148.828 57.8376 148.828 57.8472C148.828 57.8568 148.828 57.8664 148.828 57.876C148.828 57.8856 148.828 57.8952 148.828 57.9048C148.828 57.9144 148.828 57.924 148.828 57.9336C148.828 57.9432 148.828 57.9528 148.828 57.9624C148.828 57.972 148.828 57.9816 148.828 57.9912C148.828 58.0008 148.828 58.0104 148.828 58.02C148.828 58.0296 148.828 58.0392 148.828 58.0488C148.828 58.0583 148.828 58.0679 148.828 58.0775C148.828 58.0871 148.828 58.0967 148.828 58.1063C148.828 58.1159 148.828 58.1255 148.828 58.1351C148.828 58.1447 148.828 58.1543 148.828 58.1639C148.828 58.1735 148.828 58.183 148.828 58.1926C148.828 58.2022 148.828 58.2118 148.828 58.2214C148.828 58.231 148.828 58.2406 148.828 58.2502C148.828 58.2597 148.828 58.2693 148.828 58.2789C148.828 58.2885 148.828 58.2981 148.828 58.3077C148.828 58.3173 148.828 58.3268 148.828 58.3364C148.828 58.346 148.828 58.3556 148.828 58.3652C148.828 58.3748 148.828 58.3843 148.828 58.3939C148.828 58.4035 148.828 58.4131 148.828 58.4227C148.828 58.4322 148.828 58.4418 148.828 58.4514C148.828 58.461 148.828 58.4706 148.828 58.4801C148.828 58.4897 148.828 58.4993 148.828 58.5089C148.828 58.5185 148.828 58.528 148.828 58.5376C148.828 58.5472 148.828 58.5568 148.828 58.5663C148.828 58.5759 148.828 58.5855 148.828 58.5951C148.828 58.6046 148.828 58.6142 148.828 58.6238C148.828 58.6333 148.828 58.6429 148.828 58.6525C148.828 58.6621 148.828 58.6716 148.828 58.6812C148.828 58.6908 148.828 58.7003 148.828 58.7099C148.828 58.7195 148.828 58.729 148.828 58.7386C148.828 58.7482 148.828 58.7578 148.828 58.7673C148.828 58.7769 148.828 58.7865 148.828 58.796C148.828 58.8056 148.828 58.8151 148.828 58.8247C148.828 58.8343 148.828 58.8438 148.828 58.8534C148.828 58.863 148.828 58.8725 148.828 58.8821C148.828 58.8917 148.828 58.9012 148.828 58.9108C148.828 58.9203 148.828 58.9299 148.828 58.9395C148.828 58.949 148.828 58.9586 148.828 58.9681C148.828 58.9777 148.828 58.9873 148.828 58.9968C148.828 59.0064 148.828 59.0159 148.828 59.0255C148.828 59.035 148.828 59.0446 148.828 59.0542C148.828 59.0637 148.828 59.0733 148.828 59.0828C148.828 59.0924 148.828 59.1019 148.828 59.1115C148.828 59.121 148.828 59.1306 148.828 59.1401C148.828 59.1497 148.828 59.1592 148.828 59.1688C148.828 59.1784 148.828 59.1879 148.828 59.1975C148.828 59.207 148.828 59.2166 148.828 59.2261C148.828 59.2356 148.828 59.2452 148.828 59.2547C148.828 59.2643 148.828 59.2738 148.828 59.2834C148.828 59.2929 148.828 59.3025 148.828 59.312C148.828 59.3216 148.828 59.3311 148.828 59.3407C148.828 59.3502 148.828 59.3598 148.828 59.3693C148.828 59.3788 148.828 59.3884 148.828 59.3979C148.828 59.4075 148.828 59.417 148.828 59.4265C148.828 59.4361 148.828 59.4456 148.828 59.4552C148.828 59.4647 148.828 59.4742 148.828 59.4838C148.828 59.4933 148.828 59.5029 148.828 59.5124C148.828 59.5219 148.828 59.5315 148.828 59.541H154.828C154.828 59.5315 154.828 59.5219 154.828 59.5124C154.828 59.5029 154.828 59.4933 154.828 59.4838C154.828 59.4742 154.828 59.4647 154.828 59.4552C154.828 59.4456 154.828 59.4361 154.828 59.4265C154.828 59.417 154.828 59.4075 154.828 59.3979C154.828 59.3884 154.828 59.3788 154.828 59.3693C154.828 59.3598 154.828 59.3502 154.828 59.3407C154.828 59.3311 154.828 59.3216 154.828 59.312C154.828 59.3025 154.828 59.2929 154.828 59.2834C154.828 59.2738 154.828 59.2643 154.828 59.2547C154.828 59.2452 154.828 59.2356 154.828 59.2261C154.828 59.2166 154.828 59.207 154.828 59.1975C154.828 59.1879 154.828 59.1784 154.828 59.1688C154.828 59.1592 154.828 59.1497 154.828 59.1401C154.828 59.1306 154.828 59.121 154.828 59.1115C154.828 59.1019 154.828 59.0924 154.828 59.0828C154.828 59.0733 154.828 59.0637 154.828 59.0542C154.828 59.0446 154.828 59.035 154.828 59.0255C154.828 59.0159 154.828 59.0064 154.828 58.9968C154.828 58.9873 154.828 58.9777 154.828 58.9681C154.828 58.9586 154.828 58.949 154.828 58.9395C154.828 58.9299 154.828 58.9203 154.828 58.9108C154.828 58.9012 154.828 58.8917 154.828 58.8821C154.828 58.8725 154.828 58.863 154.828 58.8534C154.828 58.8438 154.828 58.8343 154.828 58.8247C154.828 58.8151 154.828 58.8056 154.828 58.796C154.828 58.7865 154.828 58.7769 154.828 58.7673C154.828 58.7578 154.828 58.7482 154.828 58.7386C154.828 58.729 154.828 58.7195 154.828 58.7099C154.828 58.7003 154.828 58.6908 154.828 58.6812C154.828 58.6716 154.828 58.6621 154.828 58.6525C154.828 58.6429 154.828 58.6333 154.828 58.6238C154.828 58.6142 154.828 58.6046 154.828 58.5951C154.828 58.5855 154.828 58.5759 154.828 58.5663C154.828 58.5568 154.828 58.5472 154.828 58.5376C154.828 58.528 154.828 58.5185 154.828 58.5089C154.828 58.4993 154.828 58.4897 154.828 58.4801C154.828 58.4706 154.828 58.461 154.828 58.4514C154.828 58.4418 154.828 58.4322 154.828 58.4227C154.828 58.4131 154.828 58.4035 154.828 58.3939C154.828 58.3843 154.828 58.3748 154.828 58.3652C154.828 58.3556 154.828 58.346 154.828 58.3364C154.828 58.3268 154.828 58.3173 154.828 58.3077C154.828 58.2981 154.828 58.2885 154.828 58.2789C154.828 58.2693 154.828 58.2597 154.828 58.2502C154.828 58.2406 154.828 58.231 154.828 58.2214C154.828 58.2118 154.828 58.2022 154.828 58.1926C154.828 58.183 154.828 58.1735 154.828 58.1639C154.828 58.1543 154.828 58.1447 154.828 58.1351C154.828 58.1255 154.828 58.1159 154.828 58.1063C154.828 58.0967 154.828 58.0871 154.828 58.0775C154.828 58.0679 154.828 58.0583 154.828 58.0488C154.828 58.0392 154.828 58.0296 154.828 58.02C154.828 58.0104 154.828 58.0008 154.828 57.9912C154.828 57.9816 154.828 57.972 154.828 57.9624C154.828 57.9528 154.828 57.9432 154.828 57.9336C154.828 57.924 154.828 57.9144 154.828 57.9048C154.828 57.8952 154.828 57.8856 154.828 57.876C154.828 57.8664 154.828 57.8568 154.828 57.8472C154.828 57.8376 154.828 57.828 154.828 57.8184C154.828 57.8088 154.828 57.7992 154.828 57.7896C154.828 57.7799 154.828 57.7703 154.828 57.7607C154.828 57.7511 154.828 57.7415 154.828 57.7319C154.828 57.7223 154.828 57.7127 154.828 57.7031C154.828 57.6935 154.828 57.6839 154.828 57.6743C154.828 57.6647 154.828 57.655 154.828 57.6454C154.828 57.6358 154.828 57.6262 154.828 57.6166C154.828 57.607 154.828 57.5974 154.828 57.5878C154.828 57.5782 154.828 57.5685 154.828 57.5589C154.828 57.5493 154.828 57.5397 154.828 57.5301C154.828 57.5205 154.828 57.5109 154.828 57.5012C154.828 57.4916 154.828 57.482 154.828 57.4724C154.828 57.4628 154.828 57.4532 154.828 57.4435C154.828 57.4339 154.828 57.4243 154.828 57.4147C154.828 57.4051 154.828 57.3954 154.828 57.3858C154.828 57.3762 154.828 57.3666 154.828 57.357C154.828 57.3473 154.828 57.3377 154.828 57.3281C154.828 57.3185 154.828 57.3088 154.828 57.2992C154.828 57.2896 154.828 57.28 154.828 57.2703C154.828 57.2607 154.828 57.2511 154.828 57.2415C154.828 57.2318 154.828 57.2222 154.828 57.2126C154.828 57.203 154.828 57.1933 154.828 57.1837C154.828 57.1741 154.828 57.1644 154.828 57.1548C154.828 57.1452 154.828 57.1356 154.828 57.1259C154.828 57.1163 154.828 57.1067 154.828 57.097C154.828 57.0874 154.828 57.0778 154.828 57.0681C154.828 57.0585 154.828 57.0489 154.828 57.0392C154.828 57.0296 154.828 57.02 154.828 57.0103C154.828 57.0007 154.828 56.9911 154.828 56.9814C154.828 56.9718 154.828 56.9622 154.828 56.9525C154.828 56.9429 154.828 56.9332 154.828 56.9236C154.828 56.914 154.828 56.9043 154.828 56.8947C154.828 56.885 154.828 56.8754 154.828 56.8658C154.828 56.8561 154.828 56.8465 154.828 56.8368C154.828 56.8272 154.828 56.8176 154.828 56.8079C154.828 56.7983 154.828 56.7886 154.828 56.779C154.828 56.7693 154.828 56.7597 154.828 56.7501C154.828 56.7404 154.828 56.7308 154.828 56.7211C154.828 56.7115 154.828 56.7018 154.828 56.6922C154.828 56.6825 154.828 56.6729 154.828 56.6632C154.828 56.6536 154.828 56.6439 154.828 56.6343C154.828 56.6246 154.828 56.615 154.828 56.6053C154.828 56.5957 154.828 56.586 154.828 56.5764C154.828 56.5667 154.828 56.5571 154.828 56.5474C154.828 56.5378 154.828 56.5281 154.828 56.5185C154.828 56.5088 154.828 56.4992 154.828 56.4895C154.828 56.4798 154.828 56.4702 154.828 56.4605C154.828 56.4509 154.828 56.4412 154.828 56.4316C154.828 56.4219 154.828 56.4122 154.828 56.4026C154.828 56.3929 154.828 56.3833 154.828 56.3736C154.828 56.3639 154.828 56.3543 154.828 56.3446C154.828 56.335 154.828 56.3253 154.828 56.3156C154.828 56.306 154.828 56.2963 154.828 56.2867C154.828 56.277 154.828 56.2673 154.828 56.2577C154.828 56.248 154.828 56.2383 154.828 56.2287C154.828 56.219 154.828 56.2093 154.828 56.1997C154.828 56.19 154.828 56.1803 154.828 56.1707C154.828 56.161 154.828 56.1513 154.828 56.1417C154.828 56.132 154.828 56.1223 154.828 56.1127C154.828 56.103 154.828 56.0933 154.828 56.0836C154.828 56.074 154.828 56.0643 154.828 56.0546C154.828 56.045 154.828 56.0353 154.828 56.0256C154.828 56.0159 154.828 56.0063 154.828 55.9966C154.828 55.9869 154.828 55.9772 154.828 55.9676C154.828 55.9579 154.828 55.9482 154.828 55.9385C154.828 55.9289 154.828 55.9192 154.828 55.9095C154.828 55.8998 154.828 55.8902 154.828 55.8805C154.828 55.8708 154.828 55.8611 154.828 55.8514C154.828 55.8418 154.828 55.8321 154.828 55.8224C154.828 55.8127 154.828 55.803 154.828 55.7934C154.828 55.7837 154.828 55.774 154.828 55.7643C154.828 55.7546 154.828 55.7449 154.828 55.7353C154.828 55.7256 154.828 55.7159 154.828 55.7062C154.828 55.6965 154.828 55.6868 154.828 55.6771C154.828 55.6675 154.828 55.6578 154.828 55.6481C154.828 55.6384 154.828 55.6287 154.828 55.619C154.828 55.6093 154.828 55.5996 154.828 55.59C154.828 55.5803 154.828 55.5706 154.828 55.5609C154.828 55.5512 154.828 55.5415 154.828 55.5318C154.828 55.5221 154.828 55.5124 154.828 55.5027C154.828 55.493 154.828 55.4833 154.828 55.4736C154.828 55.464 154.828 55.4543 154.828 55.4446C154.828 55.4349 154.828 55.4252 154.828 55.4155C154.828 55.4058 154.828 55.3961 154.828 55.3864C154.828 55.3767 154.828 55.367 154.828 55.3573C154.828 55.3476 154.828 55.3379 154.828 55.3282C154.828 55.3185 154.828 55.3088 154.828 55.2991C154.828 55.2894 154.828 55.2797 154.828 55.27C154.828 55.2603 154.828 55.2506 154.828 55.2409C154.828 55.2312 154.828 55.2215 154.828 55.2118C154.828 55.2021 154.828 55.1924 154.828 55.1826C154.828 55.1729 154.828 55.1632 154.828 55.1535C154.828 55.1438 154.828 55.1341 154.828 55.1244C154.828 55.1147 154.828 55.105 154.828 55.0953C154.828 55.0856 154.828 55.0759 154.828 55.0662C154.828 55.0564 154.828 55.0467 154.828 55.037C154.828 55.0273 154.828 55.0176 154.828 55.0079C154.828 54.9982 154.828 54.9885 154.828 54.9788C154.828 54.969 154.828 54.9593 154.828 54.9496C154.828 54.9399 154.828 54.9302 154.828 54.9205C154.828 54.9107 154.828 54.901 154.828 54.8913C154.828 54.8816 154.828 54.8719 154.828 54.8622C154.828 54.8524 154.828 54.8427 154.828 54.833C154.828 54.8233 154.828 54.8136 154.828 54.8039C154.828 54.7941 154.828 54.7844 154.828 54.7747C154.828 54.765 154.828 54.7552 154.828 54.7455C154.828 54.7358 154.828 54.7261 154.828 54.7164C154.828 54.7066 154.828 54.6969 154.828 54.6872C154.828 54.6775 154.828 54.6677 154.828 54.658C154.828 54.6483 154.828 54.6386 154.828 54.6288C154.828 54.6191 154.828 54.6094 154.828 54.5996C154.828 54.5899 154.828 54.5802 154.828 54.5705C154.828 54.5607 154.828 54.551 154.828 54.5413C154.828 54.5315 154.828 54.5218 154.828 54.5121C154.828 54.5024 154.828 54.4926 154.828 54.4829C154.828 54.4732 154.828 54.4634 154.828 54.4537C154.828 54.444 154.828 54.4342 154.828 54.4245C154.828 54.4148 154.828 54.405 154.828 54.3953C154.828 54.3855 154.828 54.3758 154.828 54.3661C154.828 54.3563 154.828 54.3466 154.828 54.3369C154.828 54.3271 154.828 54.3174 154.828 54.3076C154.828 54.2979 154.828 54.2882 154.828 54.2784C154.828 54.2687 154.828 54.2589 154.828 54.2492C154.828 54.2395 154.828 54.2297 154.828 54.22C154.828 54.2102 154.828 54.2005 154.828 54.1907C154.828 54.181 154.828 54.1713 154.828 54.1615C154.828 54.1518 154.828 54.142 154.828 54.1323C154.828 54.1225 154.828 54.1128 154.828 54.103C154.828 54.0933 154.828 54.0835 154.828 54.0738C154.828 54.0641 154.828 54.0543 154.828 54.0446C154.828 54.0348 154.828 54.0251 154.828 54.0153C154.828 54.0056 154.828 53.9958 154.828 53.9861C154.828 53.9763 154.828 53.9666 154.828 53.9568C154.828 53.947 154.828 53.9373 154.828 53.9275C154.828 53.9178 154.828 53.908 154.828 53.8983C154.828 53.8885 154.828 53.8788 154.828 53.869C154.828 53.8593 154.828 53.8495 154.828 53.8397C154.828 53.83 154.828 53.8202 154.828 53.8105C154.828 53.8007 154.828 53.791 154.828 53.7812C154.828 53.7714 154.828 53.7617 154.828 53.7519C154.828 53.7422 154.828 53.7324 154.828 53.7226C154.828 53.7129 154.828 53.7031 154.828 53.6933C154.828 53.6836 154.828 53.6738 154.828 53.6641C154.828 53.6543 154.828 53.6445 154.828 53.6348C154.828 53.625 154.828 53.6152 154.828 53.6055C154.828 53.5957 154.828 53.5859 154.828 53.5762C154.828 53.5664 154.828 53.5566 154.828 53.5469C154.828 53.5371 154.828 53.5273 154.828 53.5176C154.828 53.5078 154.828 53.498 154.828 53.4883C154.828 53.4785 154.828 53.4687 154.828 53.4589C154.828 53.4492 154.828 53.4394 154.828 53.4296C154.828 53.4199 154.828 53.4101 154.828 53.4003C154.828 53.3905 154.828 53.3808 154.828 53.371C154.828 53.3612 154.828 53.3514 154.828 53.3417C154.828 53.3319 154.828 53.3221 154.828 53.3123C154.828 53.3025 154.828 53.2928 154.828 53.283C154.828 53.2732 154.828 53.2634 154.828 53.2537C154.828 53.2439 154.828 53.2341 154.828 53.2243C154.828 53.2145 154.828 53.2048 154.828 53.195C154.828 53.1852 154.828 53.1754 154.828 53.1656C154.828 53.1558 154.828 53.1461 154.828 53.1363C154.828 53.1265 154.828 53.1167 154.828 53.1069C154.828 53.0971 154.828 53.0874 154.828 53.0776C154.828 53.0678 154.828 53.058 154.828 53.0482C154.828 53.0384 154.828 53.0286 154.828 53.0188C154.828 53.0091 154.828 52.9993 154.828 52.9895C154.828 52.9797 154.828 52.9699 154.828 52.9601C154.828 52.9503 154.828 52.9405 154.828 52.9307C154.828 52.9209 154.828 52.9112 154.828 52.9014C154.828 52.8916 154.828 52.8818 154.828 52.872C154.828 52.8622 154.828 52.8524 154.828 52.8426C154.828 52.8328 154.828 52.823 154.828 52.8132C154.828 52.8034 154.828 52.7936 154.828 52.7838C154.828 52.774 154.828 52.7642 154.828 52.7544C154.828 52.7446 154.828 52.7348 154.828 52.725C154.828 52.7152 154.828 52.7054 154.828 52.6956C154.828 52.6858 154.828 52.676 154.828 52.6662C154.828 52.6564 154.828 52.6466 154.828 52.6368C154.828 52.627 154.828 52.6172 154.828 52.6074C154.828 52.5976 154.828 52.5878 154.828 52.578C154.828 52.5682 154.828 52.5584 154.828 52.5486C154.828 52.5388 154.828 52.529 154.828 52.5192C154.828 52.5094 154.828 52.4995 154.828 52.4897C154.828 52.4799 154.828 52.4701 154.828 52.4603C154.828 52.4505 154.828 52.4407 154.828 52.4309C154.828 52.4211 154.828 52.4113 154.828 52.4015C154.828 52.3916 154.828 52.3818 154.828 52.372C154.828 52.3622 154.828 52.3524 154.828 52.3426C154.828 52.3328 154.828 52.3229 154.828 52.3131C154.828 52.3033 154.828 52.2935 154.828 52.2837C154.828 52.2739 154.828 52.2641 154.828 52.2542C154.828 52.2444 154.828 52.2346 154.828 52.2248C154.828 52.215 154.828 52.2051 154.828 52.1953C154.828 52.1855 154.828 52.1757 154.828 52.1659C154.828 52.156 154.828 52.1462 154.828 52.1364C154.828 52.1266 154.828 52.1168 154.828 52.1069C154.828 52.0971 154.828 52.0873 154.828 52.0775C154.828 52.0676 154.828 52.0578 154.828 52.048C154.828 52.0382 154.828 52.0283 154.828 52.0185C154.828 52.0087 154.828 51.9989 154.828 51.989C154.828 51.9792 154.828 51.9694 154.828 51.9595C154.828 51.9497 154.828 51.9399 154.828 51.9301C154.828 51.9202 154.828 51.9104 154.828 51.9006C154.828 51.8907 154.828 51.8809 154.828 51.8711C154.828 51.8612 154.828 51.8514 154.828 51.8416C154.828 51.8317 154.828 51.8219 154.828 51.8121C154.828 51.8022 154.828 51.7924 154.828 51.7826C154.828 51.7727 154.828 51.7629 154.828 51.7531C154.828 51.7432 154.828 51.7334 154.828 51.7236C154.828 51.7137 154.828 51.7039 154.828 51.694C154.828 51.6842 154.828 51.6744 154.828 51.6645C154.828 51.6547 154.828 51.6448 154.828 51.635C154.828 51.6252 154.828 51.6153 154.828 51.6055C154.828 51.5956 154.828 51.5858 154.828 51.576C154.828 51.5661 154.828 51.5563 154.828 51.5464C154.828 51.5366 154.828 51.5267 154.828 51.5169C154.828 51.507 154.828 51.4972 154.828 51.4874C154.828 51.4775 154.828 51.4677 154.828 51.4578C154.828 51.448 154.828 51.4381 154.828 51.4283C154.828 51.4184 154.828 51.4086 154.828 51.3987C154.828 51.3889 154.828 51.379 154.828 51.3692C154.828 51.3593 154.828 51.3495 154.828 51.3396C154.828 51.3298 154.828 51.3199 154.828 51.3101C154.828 51.3002 154.828 51.2904 154.828 51.2805C154.828 51.2706 154.828 51.2608 154.828 51.2509C154.828 51.2411 154.828 51.2312 154.828 51.2214C154.828 51.2115 154.828 51.2017 154.828 51.1918C154.828 51.1819 154.828 51.1721 154.828 51.1622C154.828 51.1524 154.828 51.1425 154.828 51.1326C154.828 51.1228 154.828 51.1129 154.828 51.1031C154.828 51.0932 154.828 51.0833 154.828 51.0735C154.828 51.0636 154.828 51.0538 154.828 51.0439C154.828 51.034 154.828 51.0242 154.828 51.0143C154.828 51.0044 154.828 50.9946 154.828 50.9847C154.828 50.9748 154.828 50.965 154.828 50.9551C154.828 50.9452 154.828 50.9354 154.828 50.9255C154.828 50.9156 154.828 50.9058 154.828 50.8959C154.828 50.886 154.828 50.8762 154.828 50.8663C154.828 50.8564 154.828 50.8466 154.828 50.8367C154.828 50.8268 154.828 50.8169 154.828 50.8071C154.828 50.7972 154.828 50.7873 154.828 50.7775C154.828 50.7676 154.828 50.7577 154.828 50.7478C154.828 50.738 154.828 50.7281 154.828 50.7182C154.828 50.7083 154.828 50.6985 154.828 50.6886C154.828 50.6787 154.828 50.6688 154.828 50.659C154.828 50.6491 154.828 50.6392 154.828 50.6293C154.828 50.6194 154.828 50.6096 154.828 50.5997C154.828 50.5898 154.828 50.5799 154.828 50.57C154.828 50.5602 154.828 50.5503 154.828 50.5404C154.828 50.5305 154.828 50.5206 154.828 50.5107C154.828 50.5009 154.828 50.491 154.828 50.4811C154.828 50.4712 154.828 50.4613 154.828 50.4514C154.828 50.4416 154.828 50.4317 154.828 50.4218C154.828 50.4119 154.828 50.402 154.828 50.3921C154.828 50.3822 154.828 50.3723 154.828 50.3625C154.828 50.3526 154.828 50.3427 154.828 50.3328C154.828 50.3229 154.828 50.313 154.828 50.3031C154.828 50.2932 154.828 50.2833 154.828 50.2734C154.828 50.2635 154.828 50.2537 154.828 50.2438C154.828 50.2339 154.828 50.224 154.828 50.2141C154.828 50.2042 154.828 50.1943 154.828 50.1844C154.828 50.1745 154.828 50.1646 154.828 50.1547C154.828 50.1448 154.828 50.1349 154.828 50.125C154.828 50.1151 154.828 50.1052 154.828 50.0953C154.828 50.0854 154.828 50.0755 154.828 50.0656C154.828 50.0557 154.828 50.0458 154.828 50.0359C154.828 50.026 154.828 50.0161 154.828 50.0062C154.828 49.9963 154.828 49.9864 154.828 49.9765C154.828 49.9666 154.828 49.9567 154.828 49.9468C154.828 49.9369 154.828 49.927 154.828 49.9171C154.828 49.9072 154.828 49.8973 154.828 49.8874C154.828 49.8775 154.828 49.8675 154.828 49.8576C154.828 49.8477 154.828 49.8378 154.828 49.8279C154.828 49.818 154.828 49.8081 154.828 49.7982C154.828 49.7883 154.828 49.7784 154.828 49.7685C154.828 49.7585 154.828 49.7486 154.828 49.7387C154.828 49.7288 154.828 49.7189 154.828 49.709C154.828 49.6991 154.828 49.6892 154.828 49.6792C154.828 49.6693 154.828 49.6594 154.828 49.6495C154.828 49.6396 154.828 49.6297 154.828 49.6197C154.828 49.6098 154.828 49.5999 154.828 49.59C154.828 49.5801 154.828 49.5702 154.828 49.5602C154.828 49.5503 154.828 49.5404 154.828 49.5305C154.828 49.5206 154.828 49.5106 154.828 49.5007C154.828 49.4908 154.828 49.4809 154.828 49.471C154.828 49.461 154.828 49.4511 154.828 49.4412C154.828 49.4313 154.828 49.4213 154.828 49.4114C154.828 49.4015 154.828 49.3916 154.828 49.3816C154.828 49.3717 154.828 49.3618 154.828 49.3519C154.828 49.3419 154.828 49.332 154.828 49.3221C154.828 49.3122 154.828 49.3022 154.828 49.2923C154.828 49.2824 154.828 49.2724 154.828 49.2625C154.828 49.2526 154.828 49.2426 154.828 49.2327C154.828 49.2228 154.828 49.2128 154.828 49.2029C154.828 49.193 154.828 49.1831 154.828 49.1731C154.828 49.1632 154.828 49.1533 154.828 49.1433C154.828 49.1334 154.828 49.1234 154.828 49.1135C154.828 49.1036 154.828 49.0936 154.828 49.0837C154.828 49.0738 154.828 49.0638 154.828 49.0539C154.828 49.044 154.828 49.034 154.828 49.0241C154.828 49.0141 154.828 49.0042 154.828 48.9943C154.828 48.9843 154.828 48.9744 154.828 48.9644C154.828 48.9545 154.828 48.9445 154.828 48.9346C154.828 48.9247 154.828 48.9147 154.828 48.9048C154.828 48.8948 154.828 48.8849 154.828 48.8749C154.828 48.865 154.828 48.8551 154.828 48.8451C154.828 48.8352 154.828 48.8252 154.828 48.8153C154.828 48.8053 154.828 48.7954 154.828 48.7854C154.828 48.7755 154.828 48.7655 154.828 48.7556C154.828 48.7456 154.828 48.7357 154.828 48.7257C154.828 48.7158 154.828 48.7058 154.828 48.6959C154.828 48.6859 154.828 48.676 154.828 48.666C154.828 48.6561 154.828 48.6461 154.828 48.6362C154.828 48.6262 154.828 48.6163 154.828 48.6063C154.828 48.5963 154.828 48.5864 154.828 48.5764C154.828 48.5665 154.828 48.5565 154.828 48.5466C154.828 48.5366 154.828 48.5267 154.828 48.5167C154.828 48.5067 154.828 48.4968 154.828 48.4868C154.828 48.4769 154.828 48.4669 154.828 48.4569C154.828 48.447 154.828 48.437 154.828 48.4271C154.828 48.4171 154.828 48.4071 154.828 48.3972C154.828 48.3872 154.828 48.3772 154.828 48.3673C154.828 48.3573 154.828 48.3474 154.828 48.3374C154.828 48.3274 154.828 48.3175 154.828 48.3075C154.828 48.2975 154.828 48.2876 154.828 48.2776C154.828 48.2676 154.828 48.2577 154.828 48.2477C154.828 48.2377 154.828 48.2278 154.828 48.2178C154.828 48.2078 154.828 48.1978 154.828 48.1879C154.828 48.1779 154.828 48.1679 154.828 48.158C154.828 48.148 154.828 48.138 154.828 48.128C154.828 48.1181 154.828 48.1081 154.828 48.0981C154.828 48.0882 154.828 48.0782 154.828 48.0682C154.828 48.0582 154.828 48.0483 154.828 48.0383C154.828 48.0283 154.828 48.0183 154.828 48.0084C154.828 47.9984 154.828 47.9884 154.828 47.9784C154.828 47.9684 154.828 47.9585 154.828 47.9485C154.828 47.9385 154.828 47.9285 154.828 47.9185C154.828 47.9086 154.828 47.8986 154.828 47.8886C154.828 47.8786 154.828 47.8686 154.828 47.8587C154.828 47.8487 154.828 47.8387 154.828 47.8287C154.828 47.8187 154.828 47.8087 154.828 47.7987C154.828 47.7888 154.828 47.7788 154.828 47.7688C154.828 47.7588 154.828 47.7488 154.828 47.7388C154.828 47.7288 154.828 47.7189 154.828 47.7089C154.828 47.6989 154.828 47.6889 154.828 47.6789C154.828 47.6689 154.828 47.6589 154.828 47.6489C154.828 47.6389 154.828 47.629 154.828 47.619C154.828 47.609 154.828 47.599 154.828 47.589C154.828 47.579 154.828 47.569 154.828 47.559C154.828 47.549 154.828 47.539 154.828 47.529C154.828 47.519 154.828 47.509 154.828 47.499C154.828 47.489 154.828 47.479 154.828 47.469C154.828 47.459 154.828 47.4491 154.828 47.4391C154.828 47.4291 154.828 47.4191 154.828 47.4091C154.828 47.3991 154.828 47.3891 154.828 47.3791C154.828 47.3691 154.828 47.3591 154.828 47.3491C154.828 47.3391 154.828 47.329 154.828 47.319C154.828 47.309 154.828 47.299 154.828 47.289C154.828 47.279 154.828 47.269 154.828 47.259C154.828 47.249 154.828 47.239 154.828 47.229C154.828 47.219 154.828 47.209 154.828 47.199C154.828 47.189 154.828 47.179 154.828 47.169C154.828 47.159 154.828 47.1489 154.828 47.1389C154.828 47.1289 154.828 47.1189 154.828 47.1089C154.828 47.0989 154.828 47.0889 154.828 47.0789C154.828 47.0689 154.828 47.0588 154.828 47.0488C154.828 47.0388 154.828 47.0288 154.828 47.0188C154.828 47.0088 154.828 46.9988 154.828 46.9888C154.828 46.9787 154.828 46.9687 154.828 46.9587C154.828 46.9487 154.828 46.9387 154.828 46.9287C154.828 46.9186 154.828 46.9086 154.828 46.8986C154.828 46.8886 154.828 46.8786 154.828 46.8685C154.828 46.8585 154.828 46.8485 154.828 46.8385C154.828 46.8285 154.828 46.8184 154.828 46.8084C154.828 46.7984 154.828 46.7884 154.828 46.7784C154.828 46.7683 154.828 46.7583 154.828 46.7483C154.828 46.7383 154.828 46.7282 154.828 46.7182C154.828 46.7082 154.828 46.6982 154.828 46.6881C154.828 46.6781 154.828 46.6681 154.828 46.6581C154.828 46.648 154.828 46.638 154.828 46.628C154.828 46.6179 154.828 46.6079 154.828 46.5979C154.828 46.5879 154.828 46.5778 154.828 46.5678C154.828 46.5578 154.828 46.5477 154.828 46.5377C154.828 46.5277 154.828 46.5176 154.828 46.5076C154.828 46.4976 154.828 46.4875 154.828 46.4775C154.828 46.4675 154.828 46.4574 154.828 46.4474C154.828 46.4374 154.828 46.4273 154.828 46.4173C154.828 46.4073 154.828 46.3972 154.828 46.3872C154.828 46.3771 154.828 46.3671 154.828 46.3571C154.828 46.347 154.828 46.337 154.828 46.3269C154.828 46.3169 154.828 46.3069 154.828 46.2968C154.828 46.2868 154.828 46.2767 154.828 46.2667C154.828 46.2567 154.828 46.2466 154.828 46.2366C154.828 46.2265 154.828 46.2165 154.828 46.2064C154.828 46.1964 154.828 46.1864 154.828 46.1763C154.828 46.1663 154.828 46.1562 154.828 46.1462C154.828 46.1361 154.828 46.1261 154.828 46.116C154.828 46.106 154.828 46.0959 154.828 46.0859C154.828 46.0758 154.828 46.0658 154.828 46.0557C154.828 46.0457 154.828 46.0356 154.828 46.0256C154.828 46.0155 154.828 46.0055 154.828 45.9954C154.828 45.9854 154.828 45.9753 154.828 45.9653C154.828 45.9552 154.828 45.9452 154.828 45.9351C154.828 45.9251 154.828 45.915 154.828 45.905C154.828 45.8949 154.828 45.8848 154.828 45.8748C154.828 45.8647 154.828 45.8547 154.828 45.8446C154.828 45.8346 154.828 45.8245 154.828 45.8144C154.828 45.8044 154.828 45.7943 154.828 45.7843C154.828 45.7742 154.828 45.7641 154.828 45.7541C154.828 45.744 154.828 45.734 154.828 45.7239C154.828 45.7138 154.828 45.7038 154.828 45.6937C154.828 45.6836 154.828 45.6736 154.828 45.6635C154.828 45.6535 154.828 45.6434 154.828 45.6333C154.828 45.6233 154.828 45.6132 154.828 45.6031C154.828 45.5931 154.828 45.583 154.828 45.5729C154.828 45.5629 154.828 45.5528 154.828 45.5427C154.828 45.5327 154.828 45.5226 154.828 45.5125C154.828 45.5024 154.828 45.4924 154.828 45.4823C154.828 45.4722 154.828 45.4622 154.828 45.4521C154.828 45.442 154.828 45.4319 154.828 45.4219C154.828 45.4118 154.828 45.4017 154.828 45.3916C154.828 45.3816 154.828 45.3715 154.828 45.3614C154.828 45.3513 154.828 45.3413 154.828 45.3312C154.828 45.3211 154.828 45.311 154.828 45.301C154.828 45.2909 154.828 45.2808 154.828 45.2707C154.828 45.2606 154.828 45.2506 154.828 45.2405C154.828 45.2304 154.828 45.2203 154.828 45.2102C154.828 45.2002 154.828 45.1901 154.828 45.18C154.828 45.1699 154.828 45.1598 154.828 45.1498C154.828 45.1397 154.828 45.1296 154.828 45.1195C154.828 45.1094 154.828 45.0993 154.828 45.0892C154.828 45.0792 154.828 45.0691 154.828 45.059C154.828 45.0489 154.828 45.0388 154.828 45.0287C154.828 45.0186 154.828 45.0086 154.828 44.9985C154.828 44.9884 154.828 44.9783 154.828 44.9682C154.828 44.9581 154.828 44.948 154.828 44.9379C154.828 44.9278 154.828 44.9177 154.828 44.9077C154.828 44.8976 154.828 44.8875 154.828 44.8774C154.828 44.8673 154.828 44.8572 154.828 44.8471C154.828 44.837 154.828 44.8269 154.828 44.8168C154.828 44.8067 154.828 44.7966 154.828 44.7865C154.828 44.7764 154.828 44.7663 154.828 44.7562C154.828 44.7461 154.828 44.736 154.828 44.7259C154.828 44.7158 154.828 44.7057 154.828 44.6956C154.828 44.6855 154.828 44.6754 154.828 44.6653C154.828 44.6552 154.828 44.6451 154.828 44.635C154.828 44.6249 154.828 44.6148 154.828 44.6047C154.828 44.5946 154.828 44.5845 154.828 44.5744C154.828 44.5643 154.828 44.5542 154.828 44.5441C154.828 44.534 154.828 44.5239 154.828 44.5138C154.828 44.5037 154.828 44.4936 154.828 44.4835C154.828 44.4733 154.828 44.4632 154.828 44.4531H148.828ZM148.828 59.541C148.828 77.3794 148.487 92.3091 147.808 104.343L153.798 104.681C154.486 92.4956 154.828 77.4448 154.828 59.541H148.828ZM147.808 104.341C147.125 116.33 146.396 126.095 145.621 133.649L151.59 134.261C152.378 126.581 153.113 116.717 153.798 104.682L147.808 104.341ZM145.623 133.627C144.651 142.474 143.638 149.452 142.59 154.596L148.469 155.794C149.569 150.392 150.607 143.21 151.588 134.283L145.623 133.627ZM142.631 154.42C140.845 161.094 138.112 167.75 134.412 174.39L139.654 177.31C143.572 170.277 146.503 163.164 148.427 155.971L142.631 154.42ZM134.422 174.373C130.774 180.826 126.092 186.684 120.356 191.95L124.414 196.37C130.592 190.698 135.675 184.35 139.645 177.326L134.422 174.373ZM120.338 191.967C114.78 197.155 108.026 201.36 100.03 204.558L102.259 210.129C110.865 206.687 118.271 202.103 124.432 196.353L120.338 191.967ZM99.9907 204.575C92.224 207.811 83.1086 209.471 72.5801 209.471V215.471C83.7312 215.471 93.6588 213.713 102.298 210.113L99.9907 204.575ZM72.5801 209.471C61.0616 209.471 51.2161 207.709 42.97 204.281L40.6667 209.821C49.8034 213.619 60.4658 215.471 72.5801 215.471V209.471ZM42.9433 204.27C34.5692 200.882 27.6976 196.451 22.26 191.013L18.0174 195.256C24.1032 201.342 31.6847 206.188 40.6934 209.832L42.9433 204.27ZM22.2956 191.05C16.893 185.461 12.868 179.251 10.1877 172.411L4.60136 174.6C7.58514 182.214 12.0562 189.09 17.9817 195.22L22.2956 191.05ZM10.2051 172.457C7.58748 165.445 6.29297 158.476 6.29297 151.533H0.292969C0.292969 159.239 1.73284 166.918 4.58401 174.555L10.2051 172.457ZM6.29297 151.533C6.29297 146.289 7.11999 141.244 8.77033 136.385L3.08904 134.455C1.22376 139.947 0.292969 145.645 0.292969 151.533H6.29297ZM8.75371 136.432C10.4982 131.566 12.9176 127.286 16.0026 123.565L11.3841 119.735C7.82853 124.023 5.07213 128.922 3.10567 134.408L8.75371 136.432ZM16.0026 123.565C19.0652 119.872 22.6997 116.957 26.9229 114.801L24.1943 109.457C19.2378 111.988 14.9622 115.421 11.3841 119.735L16.0026 123.565ZM26.9674 114.778C31.093 112.583 35.6822 111.467 40.793 111.467V105.467C34.771 105.467 29.2038 106.792 24.1498 109.48L26.9674 114.778ZM40.793 111.467C45.1045 111.467 49.7629 112.275 54.7857 113.95L56.6831 108.257C51.159 106.416 45.8564 105.467 40.793 105.467V111.467ZM54.2228 108.512C50.5136 110.676 47.2747 113.123 44.531 115.867L48.7737 120.11C51.1082 117.775 53.9239 115.633 57.246 113.695L54.2228 108.512ZM44.4898 115.909C41.9247 118.577 39.7014 121.365 37.83 124.276L42.8771 127.521C44.5213 124.963 46.4972 122.478 48.8148 120.068L44.4898 115.909ZM37.7892 124.342C36.0343 127.232 34.6245 130.149 33.5732 133.093L39.2237 135.111C40.1255 132.585 41.3525 130.034 42.9179 127.455L37.7892 124.342ZM33.5852 133.06C32.5608 135.825 31.7822 138.516 31.2594 141.13L37.1429 142.307C37.5967 140.038 38.2829 137.651 39.2117 135.144L33.5852 133.06ZM31.2642 141.107C30.7609 143.523 30.4006 145.725 30.1923 147.704L36.1593 148.332C36.3416 146.599 36.6649 144.602 37.1381 142.331L31.2642 141.107ZM30.1799 147.86C30.0815 149.73 30.0293 151.209 30.0293 152.266H36.0293C36.0293 151.369 36.0748 150.016 36.1716 148.175L30.1799 147.86ZM30.0293 152.266C30.0293 159.17 30.9432 165.54 32.8099 171.348L38.5221 169.512C36.8732 164.382 36.0293 158.642 36.0293 152.266H30.0293ZM32.8304 171.409C34.7887 177.078 37.4924 182.041 40.9691 186.255L45.5973 182.437C42.6287 178.838 40.2543 174.524 38.5016 169.45L32.8304 171.409ZM41.0219 186.317C44.6174 190.441 48.9098 193.673 53.8766 195.998L56.4203 190.564C52.2074 188.592 48.5896 185.867 45.5445 182.374L41.0219 186.317ZM53.9246 196.02C58.9323 198.258 64.3833 199.357 70.2363 199.357V193.357C65.1519 193.357 60.5442 192.406 56.3723 190.542L53.9246 196.02ZM70.2363 199.357C77.4988 199.357 84.1326 197.85 90.0729 194.773L87.3138 189.445C82.3166 192.033 76.6458 193.357 70.2363 193.357V199.357ZM90.0906 194.764C96.1124 191.595 101.201 187.013 105.358 181.089L100.447 177.642C96.7915 182.851 92.4071 186.765 87.2961 189.455L90.0906 194.764ZM105.358 181.089C109.513 175.168 112.669 167.937 114.886 159.471L109.082 157.951C107.003 165.891 104.104 172.43 100.447 177.642L105.358 181.089ZM114.889 159.463C117.115 150.862 118.207 141.03 118.207 130H112.207C112.207 140.65 111.151 149.959 109.08 157.959L114.889 159.463ZM118.207 130C118.207 122.803 117.961 115.222 117.469 107.257L111.48 107.626C111.965 115.482 112.207 122.939 112.207 130H118.207ZM117.471 107.295C117.078 99.2394 116.489 91.1355 115.703 82.9837L109.731 83.5593C110.507 91.6184 111.09 99.6278 111.478 107.588L117.471 107.295ZM115.706 83.0223C115.02 74.7829 114.186 66.592 113.205 58.4497L107.248 59.1674C108.22 67.2361 109.047 75.3538 109.727 83.5206L115.706 83.0223ZM113.205 58.4497C112.226 50.3227 111.197 42.5353 110.119 35.0878L104.181 35.9473C105.252 43.3436 106.274 51.0836 107.248 59.1674L113.205 58.4497ZM108.678 32.9358L69.5669 9.79123L66.5112 14.9549L105.623 38.0994L108.678 32.9358ZM68.2569 15.3651L182.954 7.01552L182.519 1.03136L67.8212 9.38096L68.2569 15.3651Z" fill="black"/>
</svg>
