<svg width="100" height="50" viewBox="0 0 99 212" fill="none" xmlns="http://www.w3.org/2000/svg">
<path d="M68.041 188.689L97.3379 200.408L23.9492 207.586L50.3164 186.932L45.7754 28.7285L11.9375 14.0801L86.0586 4.26562L68.041 188.689Z" fill="#40A90F"/>
<path d="M68.041 188.689L65.0552 188.398L64.8363 190.639L66.9268 191.475L68.041 188.689ZM97.3379 200.408L97.6299 203.394L98.4521 197.623L97.3379 200.408ZM23.9492 207.586L22.0992 205.224L13.9932 211.574L24.2412 210.572L23.9492 207.586ZM50.3164 186.932L52.1664 189.293L53.3586 188.359L53.3152 186.846L50.3164 186.932ZM45.7754 28.7285L48.7742 28.6424L48.7194 26.7339L46.9672 25.9754L45.7754 28.7285ZM11.9375 14.0801L11.5437 11.106L0.801648 12.5284L10.7457 16.8332L11.9375 14.0801ZM86.0586 4.26562L89.0444 4.55733L89.4119 0.795425L85.6648 1.29158L86.0586 4.26562ZM66.9268 191.475L96.2237 203.194L98.4521 197.623L69.1552 185.904L66.9268 191.475ZM97.0459 197.422L23.6572 204.6L24.2412 210.572L97.6299 203.394L97.0459 197.422ZM25.7992 209.948L52.1664 189.293L48.4664 184.57L22.0992 205.224L25.7992 209.948ZM53.3152 186.846L48.7742 28.6424L42.7766 28.8146L47.3176 187.018L53.3152 186.846ZM46.9672 25.9754L13.1293 11.327L10.7457 16.8332L44.5836 31.4816L46.9672 25.9754ZM12.3313 17.0541L86.4524 7.23967L85.6648 1.29158L11.5437 11.106L12.3313 17.0541ZM83.0728 3.97392L65.0552 188.398L71.0268 188.981L89.0444 4.55733L83.0728 3.97392Z" fill="black"/>
</svg>
