<svg width="100" height="50" viewBox="0 0 187 162" fill="none" xmlns="http://www.w3.org/2000/svg">
<path d="M145.059 8.4707L150.771 134.447L177.139 146.752L117.08 157.885L119.863 114.965C117.129 120.727 114.004 126.244 110.488 131.518C106.973 136.693 103.018 141.283 98.623 145.287C94.2285 149.193 89.3945 152.318 84.1211 154.662C78.9453 157.006 73.3301 158.178 67.2754 158.178C60.0488 158.178 53.7012 156.908 48.2324 154.369C42.7637 151.83 38.1738 148.363 34.4629 143.969C30.752 139.477 27.9199 134.252 25.9668 128.295C24.1113 122.24 23.1836 115.795 23.1836 108.959C23.1836 102.611 23.6719 96.0195 24.6484 89.1836C25.625 82.3477 26.9434 75.6094 28.6035 68.9688C30.3613 62.2305 32.4121 55.7363 34.7559 49.4863C37.1973 43.1387 39.834 37.2793 42.666 31.9082L11.7578 24.7305L69.7656 4.95508C66.0547 14.8184 63.1738 24.291 61.123 33.373C59.1699 42.3574 57.7051 50.3652 56.7285 57.3965C55.6543 65.5996 54.9707 73.2168 54.6777 80.248C54.6777 89.3301 55.3125 97.1914 56.582 103.832C57.8516 110.375 59.6094 115.844 61.8555 120.238C64.1016 124.535 66.7871 127.758 69.9121 129.906C73.0371 131.957 76.4551 132.982 80.166 132.982C85.8301 132.982 90.9082 131.469 95.4004 128.441C99.8926 125.414 103.848 121.361 107.266 116.283C110.781 111.107 113.76 105.102 116.201 98.2656C118.74 91.4297 120.791 84.2031 122.354 76.5859C124.014 68.9688 125.234 61.2051 126.016 53.2949C126.797 45.3848 127.236 37.7676 127.334 30.4434L95.5469 8.4707H145.059Z" fill="#40A90F"/>
<path d="M145.059 8.4707L148.056 8.3348L147.926 5.4707H145.059V8.4707ZM150.771 134.447L147.775 134.583L147.857 136.398L149.503 137.166L150.771 134.447ZM177.139 146.752L177.685 149.702L186.895 147.994L178.407 144.033L177.139 146.752ZM117.08 157.885L114.086 157.691L113.837 161.537L117.627 160.835L117.08 157.885ZM119.863 114.965L122.857 115.159L117.153 113.679L119.863 114.965ZM110.488 131.518L112.97 133.203L112.977 133.192L112.984 133.182L110.488 131.518ZM98.623 145.287L100.616 147.529L100.63 147.517L100.644 147.505L98.623 145.287ZM84.1211 154.662L82.9027 151.921L82.8931 151.925L82.8836 151.929L84.1211 154.662ZM34.4629 143.969L32.15 145.879L32.1603 145.892L32.1708 145.904L34.4629 143.969ZM25.9668 128.295L23.0985 129.174L23.107 129.202L23.1161 129.23L25.9668 128.295ZM28.6035 68.9688L25.7007 68.2115L25.6968 68.2263L25.6931 68.2411L28.6035 68.9688ZM34.7559 49.4863L31.9558 48.4094L31.9513 48.4212L31.9469 48.433L34.7559 49.4863ZM42.666 31.9082L45.3197 33.3074L47.1343 29.866L43.3446 28.986L42.666 31.9082ZM11.7578 24.7305L10.7898 21.8909L0.854006 25.2781L11.0792 27.6527L11.7578 24.7305ZM69.7656 4.95508L72.5735 6.01149L74.8105 0.0656959L68.7976 2.11555L69.7656 4.95508ZM61.123 33.373L58.1967 32.7123L58.1941 32.724L58.1915 32.7358L61.123 33.373ZM56.7285 57.3965L53.757 56.9838L53.7554 56.9954L53.7539 57.007L56.7285 57.3965ZM54.6777 80.248L51.6803 80.1232L51.6777 80.1856V80.248H54.6777ZM56.582 103.832L53.6354 104.395L53.637 104.403L56.582 103.832ZM61.8555 120.238L59.1842 121.604L59.1904 121.616L59.1968 121.628L61.8555 120.238ZM69.9121 129.906L68.2125 132.378L68.2391 132.397L68.2661 132.414L69.9121 129.906ZM107.266 116.283L104.784 114.598L104.777 114.608L107.266 116.283ZM116.201 98.2656L113.389 97.2211L113.382 97.2388L113.376 97.2566L116.201 98.2656ZM122.354 76.5859L119.422 75.9471L119.418 75.9651L119.415 75.9831L122.354 76.5859ZM127.334 30.4434L130.334 30.4834L130.355 28.8847L129.04 27.9756L127.334 30.4434ZM95.5469 8.4707V5.4707H85.9309L93.841 10.9385L95.5469 8.4707ZM142.062 8.60661L147.775 134.583L153.768 134.311L148.056 8.3348L142.062 8.60661ZM149.503 137.166L175.87 149.471L178.407 144.033L152.04 131.729L149.503 137.166ZM176.592 143.802L116.533 154.935L117.627 160.835L177.685 149.702L176.592 143.802ZM120.074 158.079L122.857 115.159L116.87 114.771L114.086 157.691L120.074 158.079ZM117.153 113.679C114.48 119.31 111.427 124.701 107.992 129.853L112.984 133.182C116.581 127.787 119.777 122.143 122.574 116.251L117.153 113.679ZM108.007 129.832C104.616 134.823 100.814 139.232 96.6026 143.07L100.644 147.505C105.221 143.334 109.329 138.564 112.97 133.203L108.007 129.832ZM96.63 143.045C92.462 146.75 87.8884 149.705 82.9027 151.921L85.3395 157.404C90.9007 154.932 95.9951 151.637 100.616 147.529L96.63 143.045ZM82.8836 151.929C78.1218 154.086 72.9318 155.178 67.2754 155.178V161.178C73.7284 161.178 79.7689 159.926 85.3586 157.395L82.8836 151.929ZM67.2754 155.178C60.3999 155.178 54.498 153.971 49.4958 151.648L46.9691 157.09C52.9044 159.846 59.6978 161.178 67.2754 161.178V155.178ZM49.4958 151.648C44.4034 149.284 40.1706 146.078 36.755 142.033L32.1708 145.904C36.177 150.648 41.1239 154.376 46.9691 157.09L49.4958 151.648ZM36.7758 142.058C33.3211 137.876 30.6628 132.988 28.8175 127.36L23.1161 129.23C25.177 135.515 28.1828 141.077 32.15 145.879L36.7758 142.058ZM28.8351 127.416C27.0736 121.668 26.1836 115.521 26.1836 108.959H20.1836C20.1836 116.069 21.149 122.813 23.0985 129.174L28.8351 127.416ZM26.1836 108.959C26.1836 102.765 26.6601 96.3154 27.6183 89.6079L21.6786 88.7593C20.6837 95.7237 20.1836 102.458 20.1836 108.959H26.1836ZM27.6183 89.6079C28.5804 82.8731 29.879 76.2361 31.5139 69.6964L25.6931 68.2411C24.0077 74.9827 22.6696 81.8222 21.6786 88.7593L27.6183 89.6079ZM31.5064 69.726C33.2391 63.0837 35.259 56.6886 37.5648 50.5397L31.9469 48.433C29.5652 54.784 27.4835 61.3772 25.7007 68.2115L31.5064 69.726ZM37.5559 50.5633C39.9599 44.313 42.5488 38.5625 45.3197 33.3074L40.0123 30.509C37.1191 35.9961 34.4347 41.9644 31.9558 48.4094L37.5559 50.5633ZM43.3446 28.986L12.4364 21.8082L11.0792 27.6527L41.9874 34.8304L43.3446 28.986ZM12.7258 27.57L70.7336 7.79461L68.7976 2.11555L10.7898 21.8909L12.7258 27.57ZM66.9578 3.89866C63.2045 13.8744 60.2815 23.4796 58.1967 32.7123L64.0494 34.0338C66.0661 25.1024 68.9049 15.7623 72.5735 6.01149L66.9578 3.89866ZM58.1915 32.7358C56.2267 41.7741 54.7466 49.859 53.757 56.9838L59.7 57.8092C60.6636 50.8714 62.1132 42.9408 64.0546 34.0103L58.1915 32.7358ZM53.7539 57.007C52.6701 65.2831 51.9776 72.9897 51.6803 80.1232L57.6751 80.3729C57.9638 73.4439 58.6385 65.9161 59.7031 57.786L53.7539 57.007ZM51.6777 80.248C51.6777 89.4593 52.3207 97.5183 53.6354 104.395L59.5287 103.269C58.3043 96.8645 57.6777 89.2009 57.6777 80.248H51.6777ZM53.637 104.403C54.9426 111.133 56.7742 116.888 59.1842 121.604L64.5268 118.873C62.4446 114.799 60.7605 109.617 59.5271 103.261L53.637 104.403ZM59.1968 121.628C61.6081 126.241 64.5876 129.886 68.2125 132.378L71.6117 127.434C68.9866 125.629 66.5951 122.829 64.5141 118.849L59.1968 121.628ZM68.2661 132.414C71.8763 134.784 75.8657 135.982 80.166 135.982V129.982C77.0444 129.982 74.1979 129.13 71.5581 127.398L68.2661 132.414ZM80.166 135.982C86.3987 135.982 92.066 134.306 97.077 130.929L93.7238 125.954C89.7504 128.631 85.2615 129.982 80.166 129.982V135.982ZM97.077 130.929C101.929 127.66 106.148 123.316 109.754 117.958L104.777 114.608C101.547 119.407 97.8564 123.169 93.7238 125.954L97.077 130.929ZM109.747 117.969C113.426 112.553 116.513 106.313 119.026 99.2746L113.376 97.2566C111.007 103.891 108.136 109.662 104.784 114.598L109.747 117.969ZM119.013 99.3102C121.609 92.3213 123.701 84.9464 125.292 77.1888L119.415 75.9831C117.881 83.4599 115.871 90.538 113.389 97.2211L119.013 99.3102ZM125.285 77.2248C126.97 69.4919 128.209 61.6133 129.001 53.5898L123.03 53.0001C122.26 60.7969 121.057 68.4456 119.422 75.9471L125.285 77.2248ZM129.001 53.5898C129.79 45.602 130.235 37.8995 130.334 30.4834L124.334 30.4034C124.238 37.6356 123.804 45.1675 123.03 53.0001L129.001 53.5898ZM129.04 27.9756L97.2527 6.0029L93.841 10.9385L125.628 32.9112L129.04 27.9756ZM95.5469 11.4707H145.059V5.4707H95.5469V11.4707Z" fill="black"/>
</svg>
